<svg width="30" height="30" viewBox="0 0 30 30" fill="none" xmlns="http://www.w3.org/2000/svg">
<path d="M14.8236 1C13.0746 1.00469 11.3584 1.47499 9.85133 2.36257C8.34428 3.25015 7.10074 4.52301 6.24849 6.05032C5.39625 7.57764 4.96605 9.30434 5.00209 11.053C5.03814 12.8016 5.53913 14.5091 6.45359 16L14.2636 28.61C14.3389 28.7324 14.4451 28.8329 14.5714 28.9013C14.6978 28.9698 14.8399 29.0038 14.9836 29C15.1248 28.9993 15.2635 28.9621 15.3861 28.892C15.5088 28.8219 15.6112 28.7213 15.6836 28.6L23.2836 15.89C24.174 14.3949 24.6524 12.6907 24.6702 10.9507C24.688 9.21071 24.2445 7.49705 23.3849 5.98411C22.5253 4.47116 21.2802 3.21294 19.7764 2.33746C18.2726 1.46199 16.5637 1.00051 14.8236 1ZM21.8236 15L14.9836 26.6L7.84359 15.16C7.07133 13.9217 6.6431 12.4999 6.60299 11.0411C6.56289 9.58228 6.91236 8.13913 7.61542 6.86028C8.31848 5.58142 9.34972 4.51307 10.6029 3.76526C11.8562 3.01745 13.2861 2.6172 14.7454 2.60574C16.2047 2.59427 17.6407 2.972 18.9055 3.70003C20.1704 4.42805 21.2183 5.48006 21.9413 6.74771C22.6644 8.01537 23.0365 9.45285 23.0193 10.9121C23.0021 12.3714 22.5963 13.7997 21.8436 15.05L21.8236 15Z" fill="#95a5a6"/>
<path d="M14.8237 5.91998C13.8506 5.91998 12.8994 6.20854 12.0903 6.74915C11.2812 7.28977 10.6506 8.05817 10.2782 8.95718C9.90582 9.85619 9.80839 10.8454 9.99823 11.7998C10.1881 12.7542 10.6566 13.6309 11.3447 14.3189C12.0328 15.007 12.9095 15.4756 13.8638 15.6654C14.8182 15.8553 15.8075 15.7579 16.7065 15.3855C17.6055 15.0131 18.3739 14.3825 18.9145 13.5734C19.4551 12.7643 19.7437 11.8131 19.7437 10.84C19.741 9.53593 19.2218 8.28604 18.2997 7.36394C17.3776 6.44183 16.1277 5.92263 14.8237 5.91998ZM14.8237 14.13C14.173 14.13 13.5369 13.937 12.9959 13.5755C12.4548 13.214 12.0331 12.7002 11.7841 12.099C11.5351 11.4978 11.47 10.8363 11.5969 10.1981C11.7239 9.55994 12.0372 8.97372 12.4973 8.5136C12.9574 8.05349 13.5436 7.74014 14.1818 7.6132C14.82 7.48625 15.4815 7.55141 16.0827 7.80042C16.6839 8.04943 17.1977 8.47112 17.5592 9.01216C17.9207 9.55319 18.1137 10.1893 18.1137 10.84C18.115 11.2729 18.0309 11.7018 17.8661 12.1021C17.7014 12.5024 17.4592 12.8663 17.1536 13.1728C16.848 13.4794 16.4848 13.7226 16.085 13.8886C15.6852 14.0546 15.2566 14.14 14.8237 14.14V14.13Z" fill="#95a5a6"/>
</svg>
