<svg width="24" height="24" viewBox="0 0 24 24" fill="none" xmlns="http://www.w3.org/2000/svg">
<path d="M17.6856 12.9187C17.6593 10.2805 19.837 9.01518 19.9343 8.95126C18.7105 7.16183 16.8038 6.9163 16.1252 6.88836C14.5038 6.72368 12.9599 7.8434 12.1374 7.8434C11.3165 7.8434 10.0457 6.91249 8.70119 6.9362C6.9325 6.96244 5.30225 7.9649 4.39208 9.54816C2.55524 12.7346 3.92218 17.4569 5.71203 20.043C6.58706 21.3071 7.63058 22.7295 8.99964 22.6774C10.3192 22.6253 10.817 21.824 12.4121 21.824C14.0072 21.824 14.4551 22.6774 15.8509 22.6507C17.2699 22.6249 18.1694 21.3625 19.0373 20.0934C20.0418 18.6248 20.4554 17.2029 20.48 17.1309C20.4491 17.1165 17.7139 16.0688 17.6856 12.9187Z" fill="#A5B4CB"/>
<path d="M15.063 5.17684C15.7891 4.29546 16.281 3.07076 16.1472 1.85156C15.0995 1.8939 13.8311 2.54794 13.0789 3.42848C12.4049 4.20995 11.8157 5.45412 11.9736 6.65131C13.1424 6.7419 14.3345 6.05653 15.063 5.17684Z" fill="#A5B4CB"/>
</svg>
