<svg width="41" height="33" viewBox="0 0 41 33" fill="none" xmlns="http://www.w3.org/2000/svg">
<path d="M38.0403 19.6151L31.7045 22.5428C31.4995 23.8625 30.372 24.8746 29.0011 24.8746H19.68C19.3276 24.8746 19.0393 24.5864 19.0393 24.234C19.0393 23.8817 19.3276 23.5934 19.68 23.5934H29.0011C29.789 23.5934 30.4297 22.9656 30.4617 22.184V22.1328C30.4617 20.9668 29.52 20.0251 28.354 20.0251H23.5365C21.384 18.084 18.5845 16.7707 16.0028 16.7131C13.8439 16.6618 11.8772 16.6682 10.66 16.6875V27.5973C13.3634 29.1348 19.6351 32.5045 22.3578 32.3507C27.7775 32.0432 39.9493 23.2731 39.9493 23.2731C40.5964 22.9079 41 22.2161 41 21.4793C41 19.9546 39.4048 18.9553 38.0403 19.6151Z" fill="#EEF5FF"/>
<path d="M8.16156 13.6509H1.21078C0.544531 13.6509 0 14.1954 0 14.8617V28.7056C0 29.3718 0.544531 29.9163 1.21078 29.9163H8.16156C8.82781 29.9163 9.37234 29.3718 9.37234 28.7056V14.8617C9.37875 14.1954 8.83422 13.6509 8.16156 13.6509ZM6.01547 28.2123C5.28515 28.2123 4.68937 27.6165 4.68937 26.8862C4.68937 26.1559 5.28515 25.5601 6.01547 25.5601C6.74578 25.5601 7.34156 26.1559 7.34156 26.8862C7.34156 27.6165 6.75219 28.2123 6.01547 28.2123Z" fill="#EEF5FF"/>
<path d="M19.4302 14.2916C22.2361 14.2916 24.6321 12.5811 25.6635 10.1468H26.445L27.5789 10.7489L28.7128 10.1468L29.8467 10.7489L30.9806 10.1468L32.1145 10.7489L33.2485 10.1468L34.3824 10.7489L35.5163 10.1468H36.6374C36.7142 10.1468 36.7847 10.1211 36.8424 10.0699L38.9949 8.21848C39.1422 8.09676 39.1422 7.87254 38.9949 7.74442L36.8424 5.89301C36.7847 5.84176 36.7142 5.81613 36.6374 5.81613H25.9646C25.1894 2.84364 22.4347 0.665511 19.1931 0.774418C15.6889 0.88973 12.7869 3.79176 12.6652 7.28957C12.5371 11.1397 15.6121 14.2916 19.4302 14.2916ZM16.0541 5.95707C16.9253 5.95707 17.6364 6.66817 17.6364 7.53301C17.6364 8.40426 16.9253 9.11535 16.0541 9.11535C15.1892 9.11535 14.4781 8.40426 14.4781 7.53301C14.4781 6.66176 15.1892 5.95707 16.0541 5.95707Z" fill="#EEF5FF"/>
</svg>
