<svg width="41" height="27" viewBox="0 0 41 27"  xmlns="http://www.w3.org/2000/svg">
<path d="M41 8.61373C41 7.61109 40.1837 6.79109 39.1774 6.79109H31.1414L24.9056 1.40146C23.862 0.499455 22.5239 0 21.1448 0H0.559091C0.249727 0 0 0.249727 0 0.559091V17.4995C0 17.8089 0.249727 18.0586 0.559091 18.0586C6.478 18.0586 5.91518 18.1295 10.6935 14.637V24.5776C10.6935 25.5803 11.5098 26.4003 12.5162 26.4003H39.1774C40.18 26.4003 41 25.584 41 24.5776V8.61373ZM39.8818 24.5851C39.8818 24.9727 39.565 25.2895 39.1774 25.2895H12.5162C12.1285 25.2895 11.8117 24.9727 11.8117 24.5851V18.5059H39.8818V24.5851ZM1.11818 16.9442V1.12191H21.1448C22.2593 1.12191 23.3365 1.52073 24.1751 2.25127L29.4305 6.79482H11.2526C10.7271 6.79482 10.4923 7.45455 10.9023 7.78627C11.0402 7.89809 11.1185 7.913 11.4651 7.913H24.0595C25.4647 7.913 26.6053 9.04982 26.6053 10.4513C26.6053 11.8527 25.4647 12.9858 24.0595 12.9858H11.2526C10.9917 12.9858 11.1818 12.9038 7.32036 15.7216C5.33 17.1753 3.64527 16.9442 1.11818 16.9442ZM11.8117 14.1003H24.0633C27.2948 14.1003 28.9311 10.2165 26.6985 7.90927H39.1811C39.5687 7.90927 39.8855 8.22609 39.8855 8.61373V14.6929H11.8117V14.104V14.1003ZM11.808 17.3877V15.8074H39.8855V17.3877H11.808Z"/>
<path d="M34.3431 9.22858C32.6919 8.04703 30.3735 9.22858 30.3735 11.2599C30.3735 13.2913 32.6882 14.4766 34.3431 13.2913C35.9943 14.4728 38.3126 13.2913 38.3126 11.2599C38.3126 9.22858 35.998 8.0433 34.3431 9.22858ZM35.0923 12.4489C35.4836 11.7258 35.5023 10.8313 35.0923 10.0784C36.0353 9.5193 37.1907 10.2088 37.1907 11.2637C37.1907 12.3185 36.0353 13.0118 35.0923 12.4489ZM33.5902 12.4489C32.6472 13.008 31.4917 12.3185 31.4917 11.2637C31.4917 10.2088 32.6472 9.51558 33.5902 10.0784C34.4996 10.6188 34.4996 11.9085 33.5902 12.4489Z" />
<path d="M14.9053 22.6914V20.7942C14.9053 20.0562 13.7871 20.0562 13.7871 20.7942V22.6914C13.7871 23.4294 14.9053 23.4294 14.9053 22.6914Z" />
<path d="M17.6226 22.6914V20.7942C17.6226 20.0562 16.5044 20.0562 16.5044 20.7942V22.6914C16.5044 23.4294 17.6226 23.4294 17.6226 22.6914Z" />
<path d="M20.3433 22.6914V20.7942C20.3433 20.0562 19.2251 20.0562 19.2251 20.7942V22.6914C19.2251 23.4294 20.3433 23.4294 20.3433 22.6914Z" />
</svg>
