<svg width="34" height="34" viewBox="0 0 34 34" fill="none" xmlns="http://www.w3.org/2000/svg">
<path d="M18.1032 14.9473H15.2798C14.531 14.9473 13.8128 15.236 13.2833 15.7499C12.7538 16.2638 12.4564 16.9609 12.4564 17.6877V20.4281H20.9267V17.6877C20.9267 16.9609 20.6292 16.2638 20.0997 15.7499C19.5702 15.236 18.8521 14.9473 18.1032 14.9473Z" fill="white"/>
<path d="M16.6916 13.9507C18.2051 13.9507 19.432 12.6123 19.432 10.9612C19.432 9.31014 18.2051 7.97168 16.6916 7.97168C15.1781 7.97168 13.9512 9.31014 13.9512 10.9612C13.9512 12.6123 15.1781 13.9507 16.6916 13.9507Z" fill="white"/>
<path d="M33.383 9.46684H30.6782V2.70481H23.9162V0H33.383V9.46684Z" fill="white"/>
<path d="M31.0543 0.200299L22.0012 9.25342L23.9714 11.2236L33.0245 2.17051L31.0543 0.200299Z" fill="white"/>
<path d="M33.383 33.3831H23.9162V30.5359H30.6782V23.418H33.383V33.3831Z" fill="white"/>
<path d="M23.9615 21.7666L21.9913 23.7368L31.0445 32.7899L33.0147 30.8197L23.9615 21.7666Z" fill="white"/>
<path d="M2.84717 9.46684H0V0H9.9651V2.70481H2.84717V9.46684Z" fill="white"/>
<path d="M2.36737 0.172368L0.397156 2.14258L9.45028 11.1957L11.4205 9.22549L2.36737 0.172368Z" fill="white"/>
<path d="M9.9651 33.3831H0V23.418H2.84717V30.5359H9.9651V33.3831Z" fill="white"/>
<path d="M9.46047 21.794L0.407349 30.8472L2.37756 32.8174L11.4307 23.7643L9.46047 21.794Z" fill="white"/>
</svg>
