<svg width="24" height="24" viewBox="0 0 63 62" fill="#000000" xmlns="http://www.w3.org/2000/svg">
<path d="M53.2584 62L35 44.3662L44.7131 35L63 52.6063L53.2584 62ZM43.0609 44.3662L53.2584 54.2269L54.9391 52.6063L44.7131 42.7731L43.0609 44.3662Z"/>
<path d="M22.5 44C18.0499 44 13.6997 42.7097 9.99959 40.2923C6.29948 37.8749 3.4156 34.439 1.71263 30.419C0.00965345 26.3991 -0.435793 21.9756 0.432375 17.708C1.30054 13.4404 3.44336 9.52042 6.59005 6.44367C9.73673 3.36691 13.7458 1.27161 18.1104 0.422734C22.475 -0.426141 26.999 0.00953218 31.1104 1.67466C35.2217 3.33979 38.7357 6.15958 41.208 9.77746C43.6803 13.3953 45 17.6488 45 22C45 27.8348 42.6295 33.4305 38.4099 37.5563C34.1903 41.6821 28.4674 44 22.5 44ZM22.5 5.50001C19.1624 5.50001 15.8998 6.46772 13.1247 8.28077C10.3496 10.0938 8.18674 12.6707 6.90951 15.6857C5.63228 18.7007 5.29811 22.0183 5.94923 25.219C6.60036 28.4197 8.2076 31.3597 10.5676 33.6673C12.9276 35.9748 15.9344 37.5463 19.2079 38.183C22.4813 38.8196 25.8742 38.4929 28.9577 37.244C32.0412 35.9952 34.6768 33.8803 36.5311 31.1669C38.3853 28.4535 39.375 25.2634 39.375 22C39.375 17.6239 37.597 13.4271 34.4323 10.3327C31.2677 7.23839 26.9755 5.50001 22.5 5.50001Z" />
</svg>
