<svg width="27" height="28" viewBox="0 0 27 28" fill="none" xmlns="http://www.w3.org/2000/svg">
<path d="M23.3189 28H11.8328C11.5331 28.0018 11.2445 27.8846 11.0288 27.6733L6.76741 23.4383H4.94116V21.105H7.23838C7.53411 21.1062 7.81799 21.2232 8.03092 21.4317L12.2922 25.6667H23.3189C23.6235 25.6667 23.9156 25.5437 24.131 25.3249C24.3464 25.1061 24.4675 24.8094 24.4675 24.5C24.4675 24.1906 24.3464 23.8938 24.131 23.6751C23.9156 23.4563 23.6235 23.3333 23.3189 23.3333H17.5758V21H23.3189C24.2328 21 25.1092 21.3688 25.7555 22.0251C26.4017 22.6815 26.7647 23.5717 26.7647 24.5C26.7647 25.4282 26.4017 26.3185 25.7555 26.9748C25.1092 27.6312 24.2328 28 23.3189 28Z" fill="white"/>
<path d="M15.1346 24.2941C14.6866 24.2952 14.2429 24.206 13.8288 24.0315C13.4148 23.857 13.0387 23.6007 12.7221 23.2774L11.0232 21.5444L12.6315 19.9154L14.3304 21.6484C14.436 21.7553 14.5613 21.84 14.699 21.8976C14.8366 21.9552 14.9841 21.9846 15.1329 21.9841C15.2818 21.9835 15.429 21.9531 15.5663 21.8945C15.7036 21.8359 15.8282 21.7503 15.9331 21.6426C16.038 21.5349 16.1209 21.4072 16.1774 21.2667C16.2339 21.1262 16.2627 20.9758 16.2622 20.824C16.2616 20.6722 16.2318 20.522 16.1744 20.3819C16.1169 20.2419 16.033 20.1148 15.9274 20.0078L12.3031 16.3107H4.94116V14H12.7674C12.9165 13.9991 13.0643 14.0283 13.2022 14.0858C13.3402 14.1433 13.4658 14.228 13.5716 14.3351L17.5357 18.3788C18.0103 18.8635 18.3334 19.4808 18.4643 20.1528C18.5951 20.8247 18.5279 21.5211 18.271 22.1541C18.014 22.787 17.579 23.3281 17.0208 23.709C16.4626 24.0899 15.8062 24.2935 15.1346 24.2941Z" fill="white"/>
<path d="M3.70588 25.5294H0V23.2085H1.23529V15.0855H0V12.7646H3.70588V25.5294Z" fill="white"/>
<path d="M19.7647 3.70605H17.2941V7.00017H19.7647V3.70605Z" fill="white"/>
<path d="M23.0588 0H21V4.94118H23.0588V0Z" fill="white"/>
<path d="M20.7941 17.2942C19.8576 17.2942 18.9421 17.0285 18.1634 16.5308C17.3846 16.0331 16.7777 15.3257 16.4193 14.4981C16.0609 13.6704 15.9671 12.7597 16.1498 11.8811C16.3325 11.0025 16.7836 10.1954 17.4458 9.56198C18.108 8.92852 18.9517 8.49716 19.8703 8.32239C20.7889 8.14762 21.741 8.23729 22.6062 8.58012C23.4715 8.92294 24.2111 9.50348 24.7314 10.2483C25.2517 10.9932 25.5294 11.8689 25.5294 12.7648C25.5294 13.966 25.0305 15.1181 24.1425 15.9675C23.2545 16.817 22.05 17.2942 20.7941 17.2942ZM20.7941 10.5001C20.3259 10.5001 19.8681 10.6329 19.4788 10.8817C19.0894 11.1306 18.7859 11.4843 18.6067 11.8981C18.4275 12.3119 18.3806 12.7673 18.472 13.2066C18.5633 13.6459 18.7888 14.0494 19.1199 14.3662C19.4511 14.6829 19.8729 14.8986 20.3322 14.986C20.7915 15.0733 21.2676 15.0285 21.7002 14.8571C22.1328 14.6857 22.5026 14.3954 22.7627 14.023C23.0229 13.6505 23.1618 13.2127 23.1618 12.7648C23.1618 12.1641 22.9123 11.5881 22.4683 11.1634C22.0243 10.7387 21.4221 10.5001 20.7941 10.5001Z" fill="white"/>
</svg>
