<svg width="288" height="24" viewBox="0 0 288 24" fill="none" xmlns="http://www.w3.org/2000/svg">
<path d="M22.739 2.10348C22.2694 2.21425 21.937 2.33387 21.7377 2.45351C21.525 2.57314 21.361 2.71052 21.2458 2.89218C21.1129 3.06055 21.0287 3.33524 20.9667 3.67198C20.918 4.03088 20.8869 4.55817 20.8869 5.29812V19.0293C20.8869 19.7338 20.9002 20.261 20.9534 20.5801C21.0021 20.9079 21.0775 21.1693 21.1927 21.3687C21.3034 21.5593 21.4718 21.7055 21.6801 21.8428C21.9016 21.9669 22.2516 22.0865 22.739 22.2195V22.9949H16.1149V22.2195C16.7264 22.0732 17.134 21.9049 17.3689 21.7055C17.6037 21.5194 17.7632 21.2358 17.8474 20.868C17.9316 20.5047 17.9715 19.8844 17.9715 19.0293V12.9457C17.9715 11.3462 18.0025 9.73338 18.0423 8.09397C18.0911 6.45456 18.1443 5.34241 18.2107 4.73096H17.9449L11.6487 20.4737H9.83645L3.99218 4.48283H3.71747C3.77064 5.12974 3.82381 6.29947 3.86811 7.99204C3.92128 9.68019 3.93901 11.4304 3.93901 13.2071V19.0248C3.93901 19.7293 3.97002 20.2566 4.0099 20.5756C4.05864 20.9035 4.14283 21.1649 4.24917 21.3643C4.36437 21.5548 4.51945 21.701 4.73656 21.8384C4.95367 21.9625 5.30813 22.0821 5.79553 22.215V22.9904H0V22.215C0.660194 22.0467 1.10328 21.8561 1.32482 21.6479C1.55079 21.4441 1.68372 21.1516 1.75904 20.7794C1.82993 20.394 1.85652 19.8091 1.85652 19.0248V5.29368C1.85652 4.55373 1.84322 4.0309 1.77676 3.69416C1.72802 3.36185 1.64384 3.10043 1.51978 2.91876C1.39128 2.73267 1.22734 2.57759 1.03681 2.47125C0.832995 2.36048 0.491822 2.2364 0 2.09904V1.31921H5.67146L11.2454 16.7695L17.3733 1.31921H22.7435V2.09904L22.739 2.10348Z" fill="white"/>
<path d="M36.1158 20.2924C35.4468 21.0013 34.8265 21.5596 34.2505 21.9628C33.6833 22.366 33.063 22.6762 32.3895 22.9066C31.7072 23.1326 30.9584 23.2434 30.1564 23.2434C27.9675 23.2434 26.3148 22.5876 25.2071 21.2893C24.1039 19.9867 23.5411 18.0504 23.5411 15.5027C23.5411 13.9209 23.8247 12.534 24.3963 11.3244C24.9679 10.1192 25.7743 9.18876 26.8111 8.53742C27.8612 7.8728 29.0664 7.54492 30.4444 7.54492C31.5078 7.54492 32.4161 7.71328 33.1649 8.05445C33.9226 8.39119 34.5207 8.85644 34.9638 9.44574C35.4202 10.0306 35.7702 10.775 36.0184 11.67C36.2709 12.5606 36.4083 13.7303 36.4393 15.1704H26.4345V15.4628C26.4345 16.7079 26.5763 17.7535 26.8598 18.6087C27.1434 19.4594 27.5954 20.124 28.2378 20.607C28.8847 21.0855 29.7133 21.3248 30.7368 21.3248C31.6053 21.3248 32.3762 21.1653 33.0851 20.8463C33.7764 20.5228 34.4676 19.9955 35.1499 19.2644L36.1203 20.288L36.1158 20.2924ZM33.4485 13.8544C33.3864 12.7113 33.2402 11.7764 33.0231 11.0497C32.7971 10.3275 32.4648 9.77361 32.0217 9.3837C31.5742 8.99379 30.9982 8.80326 30.276 8.80326C29.186 8.80326 28.3087 9.23306 27.6662 10.1148C27.0149 10.9877 26.6294 12.2372 26.5142 13.8544H33.4485Z" fill="white"/>
<path d="M42.1149 10.456L42.332 10.5003C42.9258 9.79578 43.4663 9.23305 43.9581 8.82985C44.4633 8.41335 44.9994 8.09878 45.5754 7.87723C46.147 7.65569 46.8027 7.54492 47.5338 7.54492C48.1453 7.54492 48.7036 7.57593 49.191 7.64682V11.289H47.4098C47.1572 10.7129 46.8825 10.3097 46.5901 10.0528C46.3109 9.79577 45.9254 9.66728 45.4248 9.66728C45.0393 9.66728 44.6671 9.77361 44.286 9.99072C43.905 10.2123 43.5461 10.5401 43.196 10.9566C42.846 11.382 42.6023 11.7808 42.4738 12.153C42.3409 12.5163 42.2833 12.9594 42.2833 13.4689V19.0252C42.2833 19.9867 42.332 20.6557 42.4517 21.0191C42.5669 21.3824 42.7574 21.6482 43.0321 21.8166C43.3024 21.985 43.71 22.1179 44.2506 22.2154V22.9908H37.848V22.2154C38.2468 22.0825 38.5392 21.9761 38.7165 21.8831C38.8937 21.7856 39.0488 21.6527 39.164 21.4799C39.2969 21.3159 39.39 21.0545 39.452 20.7089C39.5229 20.35 39.5539 19.8139 39.5539 19.0739V12.1485C39.5539 11.4618 39.5406 10.9256 39.5185 10.5091C39.4963 10.0971 39.4298 9.76918 39.2925 9.52105C39.1596 9.2685 38.969 9.0824 38.712 8.96277C38.4595 8.84313 38.0873 8.73681 37.6088 8.64819V7.81963L41.3174 7.6601H42.2966L42.1149 10.4471V10.456Z" fill="white"/>
<path d="M60.9993 8.18203V11.5051H58.9877C58.806 10.8095 58.5845 10.2601 58.3186 9.87458C58.0483 9.47581 57.747 9.20112 57.3926 9.04161C57.0425 8.87767 56.6128 8.80233 56.0943 8.80233C55.35 8.80233 54.6853 9.04161 54.1182 9.51128C53.5599 9.98981 53.0991 10.7165 52.7624 11.6957C52.4389 12.6616 52.2617 13.8623 52.2617 15.2669C52.2617 16.1664 52.3326 16.9949 52.4522 17.7349C52.5807 18.4793 52.8022 19.1173 53.1035 19.649C53.4137 20.1763 53.8213 20.5883 54.3309 20.8808C54.836 21.1821 55.4696 21.3283 56.2228 21.3283C56.9761 21.3283 57.623 21.1821 58.261 20.8941C58.8858 20.6149 59.5548 20.1142 60.2239 19.392L61.1278 20.4377C60.5916 21.0359 60.1131 21.4834 59.701 21.8157C59.2801 22.1347 58.8459 22.405 58.3762 22.6221C57.9021 22.8303 57.4325 22.9943 56.9761 23.1006C56.5197 23.1981 56.0102 23.2469 55.474 23.2469C53.4757 23.2469 51.9471 22.5866 50.8881 21.2618C49.8291 19.9326 49.3019 18.0096 49.3019 15.5017C49.3019 13.9421 49.5943 12.542 50.188 11.3323C50.7862 10.1183 51.6103 9.18782 52.6782 8.53205C53.7504 7.86743 54.9778 7.53955 56.3912 7.53955C57.2464 7.53955 58.0528 7.59271 58.7794 7.69462C59.5194 7.7921 60.2638 7.95161 61.0037 8.17316" fill="white"/>
<path d="M71.2169 20.7309L70.9865 20.6645C70.0605 21.6038 69.192 22.264 68.3812 22.6539C67.5792 23.0571 66.7196 23.2477 65.8024 23.2477C65.0137 23.2477 64.2871 23.097 63.6756 22.778C63.0642 22.4723 62.5945 22.0203 62.2666 21.4664C61.9299 20.8949 61.7704 20.2391 61.7704 19.5036C61.7704 17.9617 62.5369 16.7698 64.07 15.9235C65.5942 15.086 67.8894 14.5942 70.9511 14.4613V13.4289C70.9511 12.3301 70.8447 11.4572 70.6276 10.8236C70.4194 10.1944 70.0826 9.72032 69.6351 9.41902C69.1743 9.12658 68.5673 8.98037 67.8096 8.98037C66.981 8.98037 66.312 9.19306 65.8113 9.62285C65.3062 10.0659 64.9296 10.7128 64.6726 11.5813H62.5989V9.51208C63.6136 8.98481 64.451 8.5993 65.1334 8.35117C65.8069 8.09862 66.4892 7.90366 67.1716 7.77074C67.8495 7.61566 68.5274 7.54919 69.2319 7.54919C70.282 7.54919 71.1194 7.71757 71.7575 8.05432C72.3911 8.38663 72.8652 8.89175 73.1886 9.58296C73.5077 10.2653 73.6627 11.311 73.6627 12.7023V18.2186C73.6627 19.0073 73.6716 19.5568 73.6805 19.8846C73.6893 20.2037 73.7159 20.5094 73.7691 20.7885C73.8267 21.0544 73.902 21.2715 74.0128 21.4354C74.1147 21.5994 74.2786 21.7412 74.4824 21.8608C74.6907 21.9804 75.0186 22.0912 75.4882 22.2241V22.9995H71.1327L71.2125 20.7354L71.2169 20.7309ZM70.9555 15.7595C68.8021 15.7817 67.1849 16.0653 66.1259 16.6147C65.0581 17.173 64.5219 18.0015 64.5219 19.1137C64.5219 19.7163 64.6371 20.1904 64.872 20.536C65.1245 20.886 65.4303 21.1297 65.798 21.2626C66.1702 21.3955 66.6133 21.4531 67.114 21.4531C67.8362 21.4531 68.492 21.2848 69.0813 20.9303C69.6706 20.5803 70.1314 20.1416 70.4504 19.6055C70.7783 19.0649 70.9511 18.5244 70.9511 18.0015V15.764L70.9555 15.7595Z" fill="white"/>
<path d="M91.9266 22.9956H85.6702V22.2202C86.0779 22.0873 86.3747 21.981 86.5564 21.8879C86.7336 21.7904 86.8931 21.6575 87.0083 21.4847C87.128 21.3208 87.2299 21.0594 87.2919 20.7005C87.3672 20.346 87.4027 19.8143 87.4027 19.0788V14.9271C87.4027 14.1916 87.3805 13.5181 87.3451 12.9155C87.2919 12.3129 87.2299 11.8122 87.1235 11.44C87.0261 11.0501 86.902 10.7444 86.7513 10.5317C86.6184 10.3146 86.4501 10.1285 86.2507 9.9734C86.0557 9.82275 85.8164 9.69425 85.5816 9.6012C85.3246 9.51701 84.9834 9.47715 84.5802 9.47715C84.177 9.47715 83.7738 9.5569 83.3972 9.71641C83.025 9.88035 82.6218 10.1595 82.1699 10.5671C81.7312 10.9703 81.4078 11.3647 81.2084 11.7546C81.0046 12.1534 80.9027 12.6009 80.9027 13.106V19.0345C80.9027 19.9428 80.9514 20.5764 81.04 20.9264C81.1198 21.2853 81.2837 21.56 81.5185 21.7373C81.7578 21.9233 82.1477 22.0873 82.6794 22.2291V23.0045H76.4585V22.2291C76.8706 22.0961 77.163 21.9898 77.3447 21.8968C77.5175 21.7993 77.6637 21.6664 77.7922 21.4936C77.903 21.3296 78.0049 21.0682 78.0713 20.7226C78.1422 20.3637 78.1688 19.8276 78.1688 19.0876V12.1622C78.1688 11.4755 78.1644 10.9393 78.1467 10.5228C78.1245 10.1108 78.0536 9.78288 77.9207 9.53475C77.7922 9.2822 77.6017 9.0961 77.3447 8.97647C77.0833 8.85683 76.7155 8.75048 76.2458 8.66187V7.82446L79.9589 7.6738H80.9204L80.7476 10.2658L80.9691 10.3323C81.7578 9.53918 82.3958 8.97646 82.8699 8.63528C83.3529 8.29854 83.8403 8.0327 84.3321 7.84661C84.8239 7.66938 85.3424 7.5719 85.8873 7.5719C86.4678 7.5719 86.9773 7.64278 87.416 7.7757C87.8679 7.89976 88.2711 8.10803 88.6167 8.37831C88.9579 8.65746 89.2459 8.9942 89.463 9.40183C89.6846 9.81833 89.8618 10.3057 89.9637 10.8773C90.0656 11.44 90.1321 12.1667 90.1321 13.0528V19.0345C90.1321 19.7744 90.1498 20.2928 90.1941 20.6251C90.2384 20.9441 90.3137 21.2011 90.4201 21.3828C90.5176 21.5645 90.6771 21.7107 90.8764 21.8392C91.0847 21.9632 91.4214 22.0873 91.931 22.2247V23.0001L91.9266 22.9956Z" fill="white"/>
<path d="M91.5455 8.61651C92.0772 8.52789 92.5026 8.38167 92.8305 8.16899C93.1584 7.95188 93.4153 7.6816 93.6014 7.36258C93.7831 7.01697 93.9337 6.60492 94.0357 6.0998C94.142 5.59912 94.2528 4.85916 94.368 3.9021H96.6321V7.82781H101.767V9.42736H96.6321V16.5034C96.6321 17.5313 96.6676 18.3378 96.7518 18.9492C96.8315 19.5562 96.9999 20.0303 97.2214 20.3804C97.4563 20.726 97.7354 20.9741 98.0234 21.1159C98.3158 21.2754 98.7102 21.3418 99.171 21.3418C99.5875 21.3418 99.9907 21.2488 100.358 21.0893C100.731 20.9121 101.094 20.6506 101.457 20.3272L102.166 21.1823C101.417 21.9179 100.704 22.4451 100.035 22.773C99.366 23.1053 98.6615 23.2648 97.9481 23.2648C96.579 23.2648 95.5599 22.8616 94.8952 22.0552C94.2262 21.2444 93.8939 19.9816 93.8939 18.258V9.4362H91.5455V8.63422V8.61651Z" fill="white"/>
<path d="M102.694 22.2186C103.097 22.0856 103.394 21.9793 103.575 21.8862C103.748 21.7888 103.899 21.6558 104.023 21.483C104.134 21.3191 104.236 21.0577 104.306 20.7121C104.373 20.3532 104.417 19.817 104.417 19.0771V12.1517C104.417 11.4649 104.404 10.9288 104.382 10.5123C104.36 10.1002 104.28 9.77234 104.156 9.52422C104.027 9.27166 103.841 9.08556 103.584 8.96593C103.318 8.84629 102.96 8.73997 102.477 8.65136V7.81392L106.185 7.66326H107.142V19.0239C107.142 19.9322 107.191 20.5659 107.266 20.9159C107.355 21.2748 107.523 21.5495 107.758 21.7267C107.993 21.9128 108.383 22.0768 108.919 22.2186V22.994H102.698V22.2186H102.694ZM107.235 4.66802H104.311V1.59302H107.235V4.66802Z" fill="white"/>
<path d="M114.502 19.0285C114.502 19.9368 114.546 20.5704 114.63 20.9204C114.71 21.2793 114.874 21.554 115.113 21.7313C115.348 21.9174 115.742 22.0813 116.283 22.2231V22.9985H109.973V22.2231C110.505 22.0857 110.877 21.9395 111.085 21.7933C111.28 21.6471 111.435 21.4698 111.52 21.266C111.608 21.0533 111.67 20.7786 111.719 20.4197C111.75 20.0609 111.759 19.6045 111.759 19.0329V5.73597C111.759 4.72574 111.754 4.01236 111.741 3.61802C111.723 3.21924 111.684 2.86923 111.617 2.58565C111.546 2.30208 111.449 2.08938 111.334 1.92987C111.205 1.77922 111.041 1.64188 110.842 1.5577C110.633 1.45136 110.257 1.36273 109.716 1.26525V0.436684L113.536 0.281616H114.497V19.0329L114.502 19.0285Z" fill="white"/>
<path d="M129.659 20.2924C128.982 21.0013 128.366 21.5596 127.799 21.9628C127.236 22.366 126.616 22.6762 125.924 22.9066C125.246 23.1326 124.502 23.2434 123.691 23.2434C121.511 23.2434 119.867 22.5876 118.746 21.2893C117.639 19.9867 117.076 18.0504 117.076 15.5027C117.076 13.9209 117.368 12.534 117.931 11.3244C118.503 10.1192 119.305 9.18876 120.35 8.53742C121.405 7.8728 122.61 7.54492 123.975 7.54492C125.043 7.54492 125.951 7.71328 126.704 8.05445C127.457 8.39119 128.056 8.85644 128.516 9.44574C128.955 10.0306 129.305 10.775 129.553 11.67C129.806 12.5606 129.947 13.7303 129.987 15.1704H119.974V15.4628C119.974 16.7079 120.111 17.7535 120.395 18.6087C120.674 19.4594 121.139 20.124 121.773 20.607C122.415 21.0855 123.248 21.3248 124.28 21.3248C125.153 21.3248 125.924 21.1653 126.624 20.8463C127.316 20.5228 128.016 19.9955 128.689 19.2644L129.659 20.288V20.2924ZM126.997 13.8544C126.939 12.7113 126.788 11.7764 126.562 11.0497C126.345 10.3275 126.008 9.77361 125.57 9.3837C125.118 8.99379 124.537 8.80326 123.82 8.80326C122.73 8.80326 121.861 9.23306 121.205 10.1148C120.559 10.9877 120.169 12.2372 120.058 13.8544H127.001H126.997Z" fill="white"/>
<path d="M142.292 19.03C142.292 19.7345 142.319 20.2618 142.367 20.5808C142.416 20.9087 142.5 21.1745 142.607 21.3695C142.722 21.56 142.873 21.7062 143.103 21.8436C143.32 21.9676 143.661 22.0873 144.153 22.2202V22.9956H137.458V22.2202C138.109 22.0518 138.552 21.8613 138.77 21.653C138.991 21.4492 139.137 21.1568 139.208 20.7846C139.279 20.3991 139.306 19.8143 139.306 19.03V5.29886C139.306 4.55892 139.288 4.03606 139.235 3.69931C139.182 3.367 139.093 3.10558 138.965 2.92392C138.845 2.73782 138.681 2.58277 138.482 2.47643C138.282 2.36566 137.941 2.24158 137.454 2.10423V1.31555H144.149V2.10423C143.683 2.215 143.347 2.33462 143.147 2.45425C142.939 2.57388 142.775 2.71126 142.642 2.89293C142.522 3.0613 142.438 3.33599 142.385 3.67273C142.323 4.03163 142.288 4.55892 142.288 5.29886V19.03H142.292Z" fill="white"/>
<path d="M161.619 22.9956H155.363V22.2202C155.775 22.0873 156.076 21.981 156.249 21.8879C156.431 21.7904 156.586 21.6575 156.714 21.4847C156.829 21.3208 156.927 21.0594 156.998 20.7005C157.06 20.346 157.091 19.8143 157.091 19.0788V14.9271C157.091 14.1916 157.073 13.5181 157.033 12.9155C156.984 12.3129 156.918 11.8122 156.812 11.44C156.714 11.0501 156.595 10.7444 156.444 10.5317C156.315 10.3146 156.134 10.1285 155.952 9.9734C155.753 9.82275 155.518 9.69425 155.27 9.6012C155.013 9.51701 154.68 9.47715 154.268 9.47715C153.856 9.47715 153.462 9.5569 153.085 9.71641C152.731 9.88035 152.319 10.1595 151.871 10.5671C151.424 10.9703 151.105 11.3647 150.896 11.7546C150.697 12.1534 150.6 12.6009 150.6 13.106V19.0345C150.6 19.9428 150.64 20.5764 150.724 20.9264C150.812 21.2853 150.976 21.56 151.202 21.7373C151.441 21.9233 151.827 22.0873 152.376 22.2291V23.0045H146.142V22.2291C146.559 22.0961 146.847 21.9898 147.024 21.8968C147.201 21.7993 147.352 21.6664 147.476 21.4936C147.596 21.3296 147.689 21.0682 147.759 20.7226C147.83 20.3637 147.875 19.8276 147.875 19.0876V12.1622C147.875 11.4755 147.857 10.9393 147.83 10.5228C147.813 10.1108 147.742 9.78288 147.604 9.53475C147.485 9.2822 147.29 9.0961 147.028 8.97647C146.767 8.85683 146.404 8.75048 145.934 8.66187V7.82446L149.643 7.6738H150.613L150.44 10.2658L150.666 10.3323C151.455 9.53918 152.084 8.97646 152.567 8.63528C153.045 8.29854 153.528 8.0327 154.029 7.84661C154.512 7.66938 155.035 7.5719 155.584 7.5719C156.134 7.5719 156.665 7.64278 157.113 7.7757C157.565 7.89976 157.968 8.10803 158.309 8.37831C158.655 8.65746 158.943 8.9942 159.16 9.40183C159.373 9.81833 159.55 10.3057 159.656 10.8773C159.776 11.44 159.825 12.1667 159.825 13.0528V19.0345C159.825 19.7744 159.842 20.2928 159.891 20.6251C159.935 20.9441 160.02 21.2011 160.117 21.3828C160.215 21.5645 160.374 21.7107 160.578 21.8392C160.768 21.9632 161.123 22.0873 161.624 22.2247V23.0001L161.619 22.9956Z" fill="white"/>
<path d="M166.786 7.82011V8.5955C166.285 8.71514 165.939 8.82591 165.753 8.92782C165.541 9.03416 165.39 9.17151 165.297 9.33988C165.195 9.51268 165.138 9.74308 165.138 10.0267C165.138 10.3102 165.182 10.616 165.244 10.9261C165.306 11.2363 165.426 11.604 165.576 12.0117L168.341 20.0492L171.576 12.344C171.797 11.8389 171.93 11.4179 172.027 11.0856C172.112 10.7666 172.152 10.4564 172.152 10.1684C172.152 9.72093 172.027 9.3886 171.801 9.1582C171.558 8.92337 171.128 8.74616 170.49 8.59994V7.82454H176.427V8.59994C176.006 8.67969 175.692 8.81703 175.475 8.98983C175.253 9.16706 175.036 9.44622 174.806 9.81398C174.584 10.195 174.318 10.7223 174.017 11.3958L168.651 23.1596H166.79L162.479 11.2894C162.178 10.4786 161.947 9.92475 161.775 9.61459C161.593 9.31772 161.407 9.09617 161.199 8.93666C160.995 8.79487 160.693 8.67082 160.303 8.59107V7.81567H166.795L166.786 7.82011Z" fill="white"/>
<path d="M188.505 20.2924C187.828 21.0013 187.207 21.5596 186.636 21.9628C186.077 22.366 185.448 22.6762 184.775 22.9066C184.097 23.1326 183.352 23.2434 182.528 23.2434C180.353 23.2434 178.7 22.5876 177.588 21.2893C176.485 19.9867 175.922 18.0504 175.922 15.5027C175.922 13.9209 176.201 12.534 176.773 11.3244C177.344 10.1192 178.142 9.18876 179.192 8.53742C180.242 7.8728 181.452 7.54492 182.812 7.54492C183.884 7.54492 184.788 7.71328 185.537 8.05445C186.299 8.39119 186.897 8.85644 187.345 9.44574C187.792 10.0306 188.147 10.775 188.395 11.67C188.647 12.5606 188.785 13.7303 188.811 15.1704H178.811V15.4628C178.811 16.7079 178.948 17.7535 179.241 18.6087C179.511 19.4594 179.985 20.124 180.619 20.607C181.261 21.0855 182.085 21.3248 183.118 21.3248C183.982 21.3248 184.775 21.1653 185.453 20.8463C186.148 20.5228 186.848 19.9955 187.535 19.2644L188.505 20.288V20.2924ZM185.834 13.8544C185.772 12.7113 185.634 11.7764 185.413 11.0497C185.187 10.3275 184.854 9.77361 184.402 9.3837C183.964 8.99379 183.383 8.80326 182.661 8.80326C181.567 8.80326 180.703 9.23306 180.056 10.1148C179.396 10.9877 179.019 12.2372 178.908 13.8544H185.838H185.834Z" fill="white"/>
<path d="M200.845 11.289H199.325C199.095 10.6598 198.825 10.1547 198.51 9.79133C198.187 9.428 197.828 9.17102 197.433 9.02037C197.026 8.87415 196.538 8.79883 195.949 8.79883C195.107 8.79883 194.425 8.98937 193.929 9.39257C193.419 9.79135 193.171 10.3319 193.171 11.0231C193.171 11.5149 193.273 11.9181 193.481 12.2372C193.672 12.5473 193.986 12.8442 194.42 13.1233C194.828 13.3936 195.586 13.7569 196.649 14.2178C197.735 14.683 198.563 15.1083 199.157 15.5027C199.737 15.8882 200.194 16.349 200.535 16.8718C200.872 17.3902 201.036 18.0061 201.036 18.7195C201.036 19.5525 200.894 20.2614 200.602 20.833C200.318 21.4001 199.924 21.8786 199.405 22.2375C198.882 22.5964 198.271 22.8534 197.553 23.0129C196.84 23.1725 196.06 23.2478 195.218 23.2478C194.323 23.2478 193.459 23.1813 192.63 23.0572C191.793 22.9199 190.978 22.7559 190.18 22.5344V19.2202H191.74C192.023 20.1861 192.449 20.895 193.011 21.3337C193.57 21.7767 194.35 21.9894 195.329 21.9894C195.71 21.9894 196.082 21.9584 196.445 21.8831C196.822 21.7945 197.145 21.666 197.42 21.4755C197.717 21.2894 197.943 21.0457 198.116 20.7266C198.28 20.4076 198.364 20 198.364 19.5259C198.364 18.9942 198.258 18.5511 198.049 18.2099C197.837 17.8776 197.509 17.5675 197.061 17.2883C196.618 17.0047 195.834 16.6281 194.713 16.1496C193.747 15.7464 192.98 15.3565 192.396 14.9754C191.811 14.5899 191.345 14.1424 191.022 13.624C190.69 13.1012 190.517 12.4897 190.517 11.7896C190.517 10.9168 190.752 10.1591 191.221 9.52549C191.696 8.88302 192.365 8.39119 193.268 8.05445C194.155 7.71328 195.196 7.54492 196.392 7.54492C197.088 7.54492 197.77 7.57593 198.413 7.65126C199.064 7.71329 199.888 7.85506 200.858 8.05445V11.289H200.845Z" fill="white"/>
<path d="M201.771 8.61651C202.29 8.52789 202.724 8.38167 203.047 8.16899C203.38 7.95188 203.641 7.6816 203.818 7.36258C204.022 7.01697 204.16 6.60492 204.266 6.0998C204.368 5.59912 204.479 4.85916 204.594 3.9021H206.845V7.82781H211.98V9.42736H206.845V16.5034C206.845 17.5313 206.889 18.3378 206.978 18.9492C207.057 19.5562 207.212 20.0303 207.452 20.3804C207.678 20.726 207.943 20.9741 208.24 21.1159C208.546 21.2754 208.909 21.3418 209.392 21.3418C209.809 21.3418 210.212 21.2488 210.571 21.0893C210.943 20.9121 211.32 20.6506 211.679 20.3272L212.383 21.1823C211.643 21.9179 210.921 22.4451 210.247 22.773C209.578 23.1053 208.878 23.2648 208.165 23.2648C206.8 23.2648 205.781 22.8616 205.121 22.0552C204.448 21.2444 204.115 19.9816 204.115 18.258V9.4362H201.767V8.63422L201.771 8.61651Z" fill="white"/>
<path d="M217.847 10.261L218.064 10.3275C218.702 9.69385 219.22 9.21089 219.637 8.88744C220.044 8.56842 220.43 8.307 220.824 8.11204C221.196 7.91708 221.56 7.77972 221.896 7.69111C222.22 7.60249 222.565 7.56262 222.915 7.56262C223.983 7.56262 224.834 7.80189 225.503 8.28928C226.168 8.77225 226.637 9.52549 226.885 10.5313C227.679 9.7293 228.317 9.13114 228.817 8.75895C229.309 8.36904 229.814 8.08103 230.324 7.86392C230.838 7.65567 231.392 7.56262 231.981 7.56262C232.69 7.56262 233.292 7.65567 233.82 7.86392C234.32 8.08103 234.755 8.39561 235.118 8.82983C235.464 9.25519 235.721 9.79576 235.893 10.4382C236.057 11.0807 236.133 11.9491 236.133 13.048V19.0296C236.133 19.8316 236.168 20.3943 236.212 20.6956C236.27 21.0058 236.345 21.2406 236.447 21.4045C236.554 21.5729 236.691 21.728 236.904 21.8476C237.107 21.9761 237.444 22.0869 237.918 22.2198V22.9952H231.671V22.2198C232.087 22.0869 232.38 21.9806 232.557 21.8875C232.739 21.79 232.894 21.6571 233.013 21.4843C233.133 21.3203 233.226 21.0589 233.301 20.7C233.368 20.3456 233.399 19.8139 233.399 19.0783V14.9267C233.399 14.0272 233.377 13.2917 233.328 12.7024C233.279 12.1131 233.208 11.6434 233.102 11.2889C233.009 10.9522 232.889 10.6642 232.734 10.4692C232.601 10.2566 232.433 10.0926 232.256 9.94198C232.087 9.79576 231.875 9.67613 231.618 9.58752C231.383 9.50776 231.05 9.46787 230.652 9.46787C230.226 9.46787 229.832 9.55205 229.473 9.71156C229.11 9.88437 228.711 10.1724 228.281 10.5711C227.847 10.9699 227.537 11.3864 227.351 11.7941C227.156 12.1928 227.067 12.6802 227.067 13.2252V19.0207C227.067 19.8227 227.094 20.3854 227.151 20.6867C227.2 20.9969 227.28 21.2317 227.386 21.3957C227.479 21.564 227.63 21.7191 227.834 21.8387C228.024 21.9672 228.37 22.078 228.844 22.2109V22.9863H222.605V22.2109C223.017 22.078 223.314 21.9717 223.496 21.8786C223.677 21.7812 223.824 21.6482 223.948 21.4754C224.067 21.3115 224.16 21.0501 224.222 20.6912C224.307 20.3367 224.333 19.805 224.333 19.0695V14.9178C224.333 13.9829 224.311 13.2119 224.249 12.6182C224.205 12.0245 224.121 11.5504 224.001 11.1959C223.895 10.8282 223.753 10.5357 223.58 10.3142C223.412 10.0926 223.234 9.92426 223.044 9.80906C222.871 9.68942 222.658 9.60523 222.415 9.54763C222.171 9.48559 221.892 9.46344 221.586 9.46344C221.156 9.46344 220.744 9.55207 220.368 9.75589C219.982 9.95085 219.597 10.2344 219.189 10.6022C218.799 10.9699 218.502 11.3554 218.294 11.7586C218.104 12.1574 218.006 12.596 218.006 13.0613V19.0163C218.006 19.6189 218.015 20.0797 218.05 20.3987C218.073 20.7177 218.13 20.9615 218.197 21.1387C218.267 21.3159 218.352 21.4621 218.462 21.5773C218.564 21.6837 218.719 21.79 218.919 21.8919C219.114 21.9983 219.402 22.0957 219.792 22.2021V22.9775H213.571V22.2021C213.97 22.0692 214.258 21.9628 214.439 21.8698C214.612 21.7723 214.758 21.6394 214.891 21.4666C215.015 21.3026 215.117 21.0412 215.179 20.6956C215.237 20.3367 215.277 19.8006 215.277 19.0606V12.1352C215.277 11.4485 215.255 10.9123 215.237 10.4958C215.219 10.0838 215.144 9.75589 215.02 9.50776C214.896 9.25521 214.696 9.06911 214.444 8.94947C214.178 8.82984 213.819 8.72349 213.336 8.63488V7.79744L217.062 7.64681H218.024L217.847 10.2388V10.261Z" fill="white"/>
<path d="M250.537 20.2924C249.864 21.0013 249.248 21.5596 248.672 21.9628C248.105 22.366 247.484 22.6762 246.815 22.9066C246.133 23.1326 245.384 23.2434 244.578 23.2434C242.393 23.2434 240.754 22.5876 239.628 21.2893C238.516 19.9867 237.971 18.0504 237.971 15.5027C237.971 13.9209 238.25 12.534 238.818 11.3244C239.385 10.1192 240.196 9.18876 241.237 8.53742C242.278 7.8728 243.492 7.54492 244.861 7.54492C245.934 7.54492 246.837 7.71328 247.591 8.05445C248.339 8.39119 248.946 8.85644 249.39 9.44574C249.841 10.0306 250.196 10.775 250.44 11.67C250.692 12.5606 250.834 13.7303 250.861 15.1704H240.851V15.4628C240.851 16.7079 240.998 17.7535 241.277 18.6087C241.565 19.4594 242.017 20.124 242.659 20.607C243.306 21.0855 244.135 21.3248 245.163 21.3248C246.022 21.3248 246.811 21.1653 247.506 20.8463C248.202 20.5228 248.898 19.9955 249.576 19.2644L250.542 20.288L250.537 20.2924ZM247.874 13.8544C247.808 12.7113 247.662 11.7764 247.449 11.0497C247.223 10.3275 246.891 9.77361 246.447 9.3837C246.009 8.99379 245.433 8.80326 244.693 8.80326C243.603 8.80326 242.73 9.23306 242.096 10.1148C241.441 10.9877 241.055 12.2372 240.936 13.8544H247.874Z" fill="white"/>
<path d="M267.073 22.9956H260.817V22.2202C261.233 22.0873 261.508 21.981 261.698 21.8879C261.885 21.7904 262.031 21.6575 262.15 21.4847C262.274 21.3208 262.372 21.0594 262.438 20.7005C262.509 20.346 262.536 19.8143 262.536 19.0788V14.9271C262.536 14.1916 262.527 13.5181 262.483 12.9155C262.438 12.3129 262.372 11.8122 262.266 11.44C262.159 11.0501 262.04 10.7444 261.893 10.5317C261.76 10.3146 261.583 10.1285 261.393 9.9734C261.189 9.82275 260.967 9.69425 260.71 9.6012C260.467 9.51701 260.125 9.47715 259.718 9.47715C259.31 9.47715 258.911 9.5569 258.539 9.71641C258.176 9.88035 257.764 10.1595 257.321 10.5671C256.878 10.9703 256.55 11.3647 256.355 11.7546C256.147 12.1534 256.045 12.6009 256.045 13.106V19.0345C256.045 19.9428 256.085 20.5764 256.164 20.9264C256.257 21.2853 256.421 21.56 256.656 21.7373C256.895 21.9233 257.281 22.0873 257.817 22.2291V23.0045H251.601V22.2291C252.004 22.0961 252.296 21.9898 252.487 21.8968C252.651 21.7993 252.806 21.6664 252.93 21.4936C253.049 21.3296 253.143 21.0682 253.218 20.7226C253.28 20.3637 253.32 19.8276 253.32 19.0876V12.1622C253.32 11.4755 253.306 10.9393 253.28 10.5228C253.262 10.1108 253.191 9.78288 253.058 9.53475C252.934 9.2822 252.744 9.0961 252.491 8.97647C252.216 8.85683 251.849 8.75048 251.379 8.66187V7.82446L255.092 7.6738H256.058L255.885 10.2658L256.102 10.3323C256.891 9.53918 257.533 8.97646 258.008 8.63528C258.491 8.29854 258.982 8.0327 259.465 7.84661C259.966 7.66938 260.489 7.5719 261.034 7.5719C261.61 7.5719 262.119 7.64278 262.567 7.7757C263.014 7.89976 263.418 8.10803 263.759 8.37831C264.104 8.65746 264.384 8.9942 264.605 9.40183C264.822 9.81833 264.991 10.3057 265.106 10.8773C265.212 11.44 265.27 12.1667 265.27 13.0528V19.0345C265.27 19.7744 265.287 20.2928 265.336 20.6251C265.372 20.9441 265.451 21.2011 265.558 21.3828C265.664 21.5645 265.815 21.7107 266.019 21.8392C266.222 21.9632 266.564 22.0873 267.069 22.2247V23.0001L267.073 22.9956Z" fill="white"/>
<path d="M266.041 8.61651C266.563 8.52789 267.007 8.38167 267.33 8.16899C267.649 7.95188 267.915 7.6816 268.101 7.36258C268.278 7.01697 268.433 6.60492 268.535 6.0998C268.637 5.59912 268.752 4.85916 268.872 3.9021H271.123V7.82781H276.254V9.42736H271.123V16.5034C271.123 17.5313 271.167 18.3378 271.251 18.9492C271.335 19.5562 271.495 20.0303 271.721 20.3804C271.965 20.726 272.222 20.9741 272.523 21.1159C272.824 21.2754 273.192 21.3418 273.671 21.3418C274.096 21.3418 274.49 21.2488 274.854 21.0893C275.221 20.9121 275.594 20.6506 275.948 20.3272L276.67 21.1823C275.908 21.9179 275.199 22.4451 274.526 22.773C273.852 23.1053 273.161 23.2648 272.43 23.2648C271.065 23.2648 270.059 22.8616 269.39 22.0552C268.721 21.2444 268.389 19.9816 268.389 18.258V9.4362H266.041V8.63422V8.61651Z" fill="white"/>
<path d="M287.823 11.289H286.299C286.073 10.6598 285.793 10.1547 285.474 9.79133C285.164 9.428 284.801 9.17102 284.393 9.02037C283.995 8.87415 283.507 8.79883 282.922 8.79883C282.067 8.79883 281.394 8.98937 280.902 9.39257C280.383 9.79135 280.14 10.3319 280.14 11.0231C280.14 11.5149 280.237 11.9181 280.441 12.2372C280.64 12.5473 280.959 12.8442 281.376 13.1233C281.801 13.3936 282.546 13.7569 283.609 14.2178C284.695 14.683 285.519 15.1083 286.117 15.5027C286.706 15.8882 287.167 16.349 287.49 16.8718C287.832 17.3902 288 18.0061 288 18.7195C288 19.5525 287.854 20.2614 287.57 20.833C287.278 21.4001 286.883 21.8786 286.361 22.2375C285.851 22.5964 285.222 22.8534 284.513 23.0129C283.791 23.1725 283.024 23.2478 282.169 23.2478C281.314 23.2478 280.419 23.1813 279.573 23.0572C278.744 22.9199 277.933 22.7559 277.136 22.5344V19.2202H278.686C278.979 20.1861 279.4 20.895 279.962 21.3337C280.525 21.7767 281.292 21.9894 282.275 21.9894C282.661 21.9894 283.029 21.9584 283.392 21.8831C283.755 21.7945 284.083 21.666 284.371 21.4755C284.655 21.2894 284.876 21.0457 285.054 20.7266C285.217 20.4076 285.311 20 285.311 19.5259C285.311 18.9942 285.209 18.5511 284.992 18.2099C284.774 17.8776 284.451 17.5675 284.008 17.2883C283.56 17.0047 282.781 16.6281 281.655 16.1496C280.689 15.7464 279.914 15.3565 279.342 14.9754C278.757 14.5899 278.297 14.1424 277.96 13.624C277.632 13.1012 277.463 12.4897 277.463 11.7896C277.463 10.9168 277.698 10.1591 278.181 9.52549C278.647 8.88302 279.32 8.39119 280.211 8.05445C281.101 7.71328 282.147 7.54492 283.343 7.54492C284.03 7.54492 284.708 7.57593 285.368 7.65126C286.019 7.71329 286.835 7.85506 287.814 8.05445V11.289H287.823Z" fill="white"/>
</svg>
