<svg width="32" height="28" viewBox="0 0 32 28" fill="none" xmlns="http://www.w3.org/2000/svg">
<path fill-rule="evenodd" clip-rule="evenodd" d="M5.33329 21V5.83333H21.3333V21C21.3333 21.4091 21.4135 21.8018 21.5609 22.1667H6.66663C5.93025 22.1667 5.33329 21.6443 5.33329 21ZM25.3333 24.5H6.66663C4.45749 24.5 2.66663 22.933 2.66663 21V3.5H21.3333H22.6666H24V9.33333H29.3333V10.5V11.6667V21C29.3333 22.933 27.5424 24.5 25.3333 24.5ZM24 11.6667H26.6666V21C26.6666 21.6443 26.0697 22.1667 25.3333 22.1667C24.5969 22.1667 24 21.6443 24 21V11.6667ZM13.3333 8.16667V12.8333H7.99996V8.16667H13.3333ZM18.6666 11.6667V9.33333H14.6666V11.6667H18.6666ZM18.6666 14V16.3333H7.99996V14H18.6666ZM18.6666 19.8333V17.5H7.99996V19.8333H18.6666Z" fill="#EEF5FF"/>
</svg>
