<svg width="34" height="36" viewBox="0 0 34 36" fill="none" xmlns="http://www.w3.org/2000/svg">
<path fill-rule="evenodd" clip-rule="evenodd" d="M30.3482 0H3.03482C1.35874 0 0 1.49461 0 3.33831V30.0448C0 31.8885 1.35874 33.3831 3.03482 33.3831H5.00742V35.0518H8.34573V33.3831H25.0373V35.0518H28.3756V33.3831H30.3482C32.0243 33.3831 33.3831 31.8885 33.3831 30.0448V3.33831C33.3831 1.49461 32.0243 0 30.3482 0ZM3.33819 30.0449V3.33849H30.0446V6.67643H28.3756V10.0147H30.0446V23.3681H28.3756V26.7064H30.0446V30.0449H3.33819ZM26.2176 23.857L23.8571 26.2176L20.0831 22.4436C19.0891 23.0309 17.9296 23.368 16.6915 23.368C15.4534 23.368 14.294 23.031 13.3 22.4437L9.5261 26.2176L7.16557 23.857L10.9394 20.0832C10.3519 19.0892 10.0148 17.9296 10.0148 16.6914C10.0148 15.4532 10.3519 14.2937 10.9392 13.2997L7.16557 9.52605L9.5261 7.16551L13.2998 10.9392C14.2938 10.3518 15.4533 10.0148 16.6915 10.0148C17.9297 10.0148 19.0893 10.3519 20.0833 10.9393L23.8571 7.16551L26.2176 9.52605L22.4438 13.2999C23.0311 14.2939 23.3681 15.4533 23.3681 16.6914C23.3681 17.9296 23.031 19.0891 22.4437 20.0831L26.2176 23.857ZM20.0297 16.6914C20.0297 18.5351 18.5351 20.0297 16.6914 20.0297C14.8477 20.0297 13.3531 18.5351 13.3531 16.6914C13.3531 14.8477 14.8477 13.3531 16.6914 13.3531C18.5351 13.3531 20.0297 14.8477 20.0297 16.6914Z" fill="#EEF5FF"/>
</svg>
