<svg width="33" height="33" viewBox="0 0 33 33" xmlns="http://www.w3.org/2000/svg">
<path d="M3.9403 13.791C5.57243 13.791 6.89552 12.5781 6.89552 11.082C6.89552 9.58589 5.57243 8.37305 3.9403 8.37305C2.30818 8.37305 0.985077 9.58589 0.985077 11.082C0.985077 12.5781 2.30818 13.791 3.9403 13.791Z" />
<path d="M2.68657 24.6268H0V17.9423C0 17.2332 0.283005 16.5531 0.786834 16.0517C1.29066 15.5503 1.97405 15.2686 2.68657 15.2686H14.7761V17.9423H2.68657V24.6268Z" />
<path d="M7.8806 32.9999H5.12239V24.873H3.74329V32.9999H0.985077V22.1641H7.8806V32.9999Z"/>
<path d="M7.8806 16.2539H0.985077V24.627H7.8806V16.2539Z" />
<path d="M27.0896 30.045H20.194V2.46289H27.0896V5.2211H22.9522V27.2868H27.0896V30.045Z"/>
<path d="M28.8134 33.0001C27.9854 33.0001 27.176 32.7545 26.4876 32.2945C25.7991 31.8345 25.2624 31.1806 24.9455 30.4156C24.6287 29.6506 24.5458 28.8089 24.7073 27.9968C24.8688 27.1847 25.2676 26.4386 25.8531 25.8531C26.4386 25.2676 27.1846 24.8689 27.9967 24.7074C28.8088 24.5459 29.6506 24.6288 30.4156 24.9456C31.1806 25.2625 31.8344 25.7991 32.2944 26.4876C32.7544 27.1761 33 27.9855 33 28.8135C33 29.9239 32.5589 30.9887 31.7738 31.7739C30.9887 32.559 29.9238 33.0001 28.8134 33.0001ZM28.8134 27.418C28.5374 27.418 28.2676 27.4998 28.0381 27.6532C27.8086 27.8065 27.6298 28.0245 27.5241 28.2795C27.4185 28.5345 27.3909 28.815 27.4448 29.0857C27.4986 29.3564 27.6315 29.6051 27.8267 29.8003C28.0219 29.9955 28.2705 30.1284 28.5412 30.1822C28.8119 30.2361 29.0925 30.2084 29.3475 30.1028C29.6025 29.9972 29.8205 29.8183 29.9738 29.5888C30.1271 29.3593 30.209 29.0895 30.209 28.8135C30.209 28.4434 30.0619 28.0884 29.8002 27.8267C29.5385 27.565 29.1836 27.418 28.8134 27.418Z" />
<path d="M28.8134 20.6866C27.9854 20.6866 27.176 20.441 26.4876 19.981C25.7991 19.521 25.2624 18.8672 24.9455 18.1022C24.6287 17.3372 24.5458 16.4954 24.7073 15.6833C24.8688 14.8712 25.2676 14.1252 25.8531 13.5397C26.4386 12.9542 27.1846 12.5555 27.9967 12.3939C28.8088 12.2324 29.6506 12.3153 30.4156 12.6322C31.1806 12.949 31.8344 13.4856 32.2944 14.1741C32.7544 14.8626 33 15.672 33 16.5C33 17.6104 32.5589 18.6752 31.7738 19.4604C30.9887 20.2455 29.9238 20.6866 28.8134 20.6866ZM28.8134 15.1045C28.5374 15.1045 28.2676 15.1863 28.0381 15.3397C27.8086 15.493 27.6298 15.711 27.5241 15.966C27.4185 16.221 27.3909 16.5016 27.4448 16.7723C27.4986 17.043 27.6315 17.2916 27.8267 17.4868C28.0219 17.682 28.2705 17.8149 28.5412 17.8687C28.8119 17.9226 29.0925 17.8949 29.3475 17.7893C29.6025 17.6837 29.8205 17.5048 29.9738 17.2754C30.1271 17.0459 30.209 16.7761 30.209 16.5C30.209 16.1299 30.0619 15.7749 29.8002 15.5132C29.5385 15.2515 29.1836 15.1045 28.8134 15.1045Z" />
<path d="M28.8134 8.37313C27.9854 8.37313 27.176 8.12756 26.4876 7.66754C25.7991 7.20751 25.2624 6.55368 24.9455 5.78868C24.6287 5.02369 24.5458 4.18193 24.7073 3.36981C24.8688 2.5577 25.2676 1.81169 25.8531 1.22619C26.4386 0.640688 27.1846 0.241986 27.9967 0.0804463C28.8088 -0.0810934 29.6506 0.00181201 30.4156 0.318683C31.1806 0.635555 31.8344 1.17215 32.2944 1.86062C32.7544 2.5491 33 3.35854 33 4.18657C33 5.29691 32.5589 6.36176 31.7738 7.1469C30.9887 7.93203 29.9238 8.37313 28.8134 8.37313ZM28.8134 2.79104C28.5374 2.79104 28.2676 2.87287 28.0381 3.02621C27.8086 3.17956 27.6298 3.39751 27.5241 3.65251C27.4185 3.90751 27.3909 4.18808 27.4448 4.45879C27.4986 4.72949 27.6315 4.97816 27.8267 5.17333C28.0219 5.3685 28.2705 5.50141 28.5412 5.55526C28.8119 5.60911 29.0925 5.58146 29.3475 5.47583C29.6025 5.37021 29.8205 5.19137 29.9738 4.96188C30.1271 4.73239 30.209 4.46257 30.209 4.18657C30.209 3.81645 30.0619 3.46147 29.8002 3.19976C29.5385 2.93805 29.1836 2.79104 28.8134 2.79104Z"/>
<path d="M26.1045 15.2686H17.7313V17.7312H26.1045V15.2686Z" />
</svg>
