<svg width="34" height="36" viewBox="0 0 34 36" fill="none" xmlns="http://www.w3.org/2000/svg">
<path d="M14.8616 29.2919H8.36926V22.7996L27.5077 3.66113L34 10.1534L14.8616 29.2919ZM11.3136 26.3475H13.6397L29.8338 10.1534L27.5077 7.81263L11.3136 24.0067V26.3475Z" fill="white"/>
<path d="M12.5411 20.7329L10.4728 22.8013L14.8577 27.1862L16.9261 25.1178L12.5411 20.7329Z" fill="white"/>
<path d="M24.5846 35.0462H0V0H24.5846V5.84102H21.6923V2.92051H2.89231V32.1256H21.6923V24.8244H24.5846V35.0462Z" fill="white"/>
<path d="M17.2615 5.75342H5.75378V8.3688H17.2615V5.75342Z" fill="white"/>
<path d="M13.0769 11.5078H5.75378V14.6463H13.0769V11.5078Z" fill="white"/>
<path d="M8.36917 17.2612H5.75378V20.3997H8.36917V17.2612Z" fill="white"/>
</svg>
