<svg width="40" height="34" viewBox="0 0 40 34"  xmlns="http://www.w3.org/2000/svg">
<path d="M13.4717 33.9999H0.888459C0.741536 33.9996 0.597023 33.9625 0.468157 33.8919C0.339291 33.8214 0.230192 33.7196 0.150853 33.5959C0.0642341 33.4679 0.0129365 33.3193 0.00214373 33.1651C-0.00864906 33.011 0.0214454 32.8567 0.0893862 32.7178L3.23299 25.8247C3.30225 25.6707 3.41447 25.5398 3.5562 25.4479C3.69793 25.3561 3.86315 25.307 4.03207 25.3066H10.3281C10.497 25.307 10.6622 25.3561 10.8039 25.4479C10.9457 25.5398 11.0579 25.6707 11.1271 25.8247L14.2707 32.7178C14.3387 32.8567 14.3688 33.011 14.358 33.1651C14.3472 33.3193 14.2959 33.4679 14.2093 33.5959C14.1299 33.7196 14.0208 33.8214 13.892 33.8919C13.7631 33.9625 13.6186 33.9996 13.4717 33.9999ZM2.24952 32.2436H12.1106L9.75729 27.098H4.59405L2.24952 32.2436Z" />
<path d="M26.0635 33.9999H13.4715C13.326 33.9982 13.1833 33.9604 13.0561 33.8898C12.9289 33.8193 12.8212 33.7183 12.7427 33.5959C12.656 33.4679 12.6047 33.3193 12.5939 33.1651C12.5831 33.011 12.6132 32.8567 12.6812 32.7178L15.8248 25.8247C15.894 25.6707 16.0063 25.5398 16.148 25.4479C16.2897 25.3561 16.455 25.307 16.6239 25.3066H22.9286C23.0976 25.307 23.2628 25.3561 23.4045 25.4479C23.5462 25.5398 23.6585 25.6707 23.7277 25.8247L26.8713 32.7178C26.9393 32.8567 26.9694 33.011 26.9586 33.1651C26.9478 33.3193 26.8965 33.4679 26.8099 33.5959C26.7297 33.7208 26.6192 33.8234 26.4887 33.894C26.3582 33.9647 26.2119 34.0011 26.0635 33.9999ZM14.8413 32.2437H24.6936L22.3491 27.098H17.1858L14.8413 32.2437Z" />
<path d="M38.6468 33.9999H26.0636C25.9152 34.0011 25.7689 33.9647 25.6383 33.894C25.5078 33.8234 25.3973 33.7208 25.3172 33.5959C25.232 33.4671 25.1822 33.3181 25.173 33.1639C25.1637 33.0098 25.1953 32.8559 25.2645 32.7178L28.4081 25.8247C28.4774 25.6707 28.5896 25.5398 28.7313 25.4479C28.8731 25.3561 29.0383 25.307 29.2072 25.3066H35.5032C35.6721 25.307 35.8373 25.3561 35.9791 25.4479C36.1208 25.5398 36.233 25.6707 36.3023 25.8247L39.4459 32.7178C39.5138 32.8567 39.5439 33.011 39.5331 33.1651C39.5223 33.3193 39.471 33.4679 39.3844 33.5959C39.3051 33.7196 39.196 33.8214 39.0671 33.8919C38.9382 33.9625 38.7937 33.9996 38.6468 33.9999ZM27.4246 32.2437H37.2769L34.9324 27.098H29.7692L27.4246 32.2437Z" />
<path d="M19.7676 27.0976H7.17559C7.02913 27.0972 6.88507 27.0603 6.75653 26.9901C6.62799 26.9199 6.51905 26.8187 6.43963 26.6956C6.36021 26.5726 6.31283 26.4316 6.30181 26.2855C6.29078 26.1395 6.31647 25.993 6.37652 25.8594L9.5289 18.9575C9.59944 18.8051 9.71221 18.6761 9.85385 18.5859C9.99548 18.4956 10.16 18.4478 10.328 18.4482H16.6152C16.7831 18.4478 16.9477 18.4956 17.0893 18.5859C17.231 18.6761 17.3437 18.8051 17.4143 18.9575L20.5666 25.8594C20.6266 25.9926 20.6524 26.1387 20.6416 26.2843C20.6309 26.43 20.584 26.5707 20.5052 26.6936C20.4258 26.8173 20.3167 26.9191 20.1879 26.9896C20.059 27.0602 19.9145 27.0973 19.7676 27.0976ZM8.54543 25.3413H18.3977L16.0532 20.2044H10.89L8.54543 25.3413Z" />
<path d="M32.3507 27.0976H19.7675C19.6206 27.0973 19.4761 27.0602 19.3472 26.9896C19.2184 26.9191 19.1093 26.8173 19.0299 26.6936C18.9511 26.5707 18.9042 26.43 18.8935 26.2843C18.8828 26.1387 18.9085 25.9926 18.9685 25.8594L22.1209 18.9575C22.1914 18.8051 22.3042 18.6761 22.4458 18.5859C22.5874 18.4956 22.752 18.4478 22.9199 18.4482H29.2071C29.3751 18.4478 29.5396 18.4956 29.6813 18.5859C29.8229 18.6761 29.9357 18.8051 30.0062 18.9575L33.1498 25.8594C33.2098 25.9926 33.2355 26.1387 33.2248 26.2843C33.2141 26.43 33.1672 26.5707 33.0883 26.6936C33.009 26.8173 32.8999 26.9191 32.771 26.9896C32.6422 27.0602 32.4977 27.0973 32.3507 27.0976ZM21.1286 25.3413H30.9897L28.6452 20.2044H23.4819L21.1286 25.3413Z" />
<path d="M26.0371 20.2138H13.4451C13.2987 20.2135 13.1546 20.1765 13.0261 20.1063C12.8975 20.0361 12.7886 19.9349 12.7092 19.8118C12.6297 19.6888 12.5824 19.5478 12.5713 19.4018C12.5603 19.2557 12.586 19.1092 12.646 18.9756L15.7984 12.0825C15.8677 11.9285 15.9799 11.7977 16.1216 11.7058C16.2634 11.6139 16.4286 11.5648 16.5975 11.5645H22.8847C23.0536 11.5648 23.2189 11.6139 23.3606 11.7058C23.5023 11.7977 23.6145 11.9285 23.6838 12.0825L26.8362 18.9756C26.8962 19.1092 26.9219 19.2557 26.9109 19.4018C26.8999 19.5478 26.8525 19.6888 26.7731 19.8118C26.6936 19.9349 26.5847 20.0361 26.4562 20.1063C26.3276 20.1765 26.1836 20.2135 26.0371 20.2138ZM14.815 18.4576H24.6673L22.3227 13.3207H17.1331L14.815 18.4576Z" />
<path d="M19.7678 7.62193C19.5349 7.62193 19.3115 7.52942 19.1468 7.36474C18.9822 7.20006 18.8896 6.97671 18.8896 6.74383V0.878102C18.8896 0.645215 18.9822 0.421867 19.1468 0.25719C19.3115 0.0925143 19.5349 0 19.7678 0C20.0006 0 20.224 0.0925143 20.3887 0.25719C20.5533 0.421867 20.6459 0.645215 20.6459 0.878102V6.74383C20.6459 6.97671 20.5533 7.20006 20.3887 7.36474C20.224 7.52942 20.0006 7.62193 19.7678 7.62193Z" />
<path d="M13.2871 10.2995C13.0555 10.2962 12.8346 10.2015 12.6724 10.0361L8.51902 5.89142C8.35547 5.7269 8.26367 5.50434 8.26367 5.27236C8.26367 5.04038 8.35547 4.81782 8.51902 4.6533C8.60065 4.57099 8.69777 4.50567 8.80477 4.46109C8.91178 4.41651 9.02655 4.39355 9.14247 4.39355C9.25839 4.39355 9.37316 4.41651 9.48017 4.46109C9.58717 4.50567 9.68429 4.57099 9.76592 4.6533L13.9106 8.79794C14.0344 8.92076 14.1189 9.07768 14.1532 9.24869C14.1875 9.41969 14.1701 9.59705 14.1032 9.75813C14.0363 9.91921 13.923 10.0567 13.7776 10.1531C13.6323 10.2496 13.4615 10.3005 13.2871 10.2995Z" />
<path d="M10.6178 16.763H4.75213C4.51924 16.763 4.29589 16.6705 4.13121 16.5059C3.96654 16.3412 3.87402 16.1178 3.87402 15.8849C3.87402 15.6521 3.96654 15.4287 4.13121 15.264C4.29589 15.0994 4.51924 15.0068 4.75213 15.0068H10.6178C10.8507 15.0068 11.0741 15.0994 11.2388 15.264C11.4034 15.4287 11.496 15.6521 11.496 15.8849C11.496 16.1178 11.4034 16.3412 11.2388 16.5059C11.0741 16.6705 10.8507 16.763 10.6178 16.763Z" />
<path d="M26.2216 10.2995C26.1054 10.299 25.9905 10.2755 25.8834 10.2303C25.7764 10.185 25.6794 10.119 25.5981 10.0361C25.4346 9.87154 25.3428 9.64898 25.3428 9.417C25.3428 9.18502 25.4346 8.96246 25.5981 8.79794L29.7428 4.6533C29.8244 4.57099 29.9215 4.50567 30.0285 4.46109C30.1355 4.41651 30.2503 4.39355 30.3662 4.39355C30.4821 4.39355 30.5969 4.41651 30.7039 4.46109C30.8109 4.50567 30.908 4.57099 30.9897 4.6533C31.1532 4.81782 31.245 5.04038 31.245 5.27236C31.245 5.50434 31.1532 5.7269 30.9897 5.89142L26.8362 10.0361C26.6741 10.2015 26.4532 10.2962 26.2216 10.2995Z" />
<path d="M34.7565 16.763H28.8996C28.6667 16.763 28.4434 16.6705 28.2787 16.5059C28.114 16.3412 28.0215 16.1178 28.0215 15.8849C28.0215 15.6521 28.114 15.4287 28.2787 15.264C28.4434 15.0994 28.6667 15.0068 28.8996 15.0068H34.7565C34.9894 15.0068 35.2128 15.0994 35.3774 15.264C35.5421 15.4287 35.6346 15.6521 35.6346 15.8849C35.6346 16.1178 35.5421 16.3412 35.3774 16.5059C35.2128 16.6705 34.9894 16.763 34.7565 16.763Z" />
</svg>
