<svg width="106" height="77" viewBox="0 0 106 77" fill="none" xmlns="http://www.w3.org/2000/svg">
<path d="M8.558 69.2175C8.38591 69.2581 8.26415 69.302 8.19109 69.3458C8.11316 69.3896 8.05309 69.44 8.01087 69.5065C7.96217 69.5682 7.93132 69.6689 7.90859 69.7923C7.89073 69.9238 7.87937 70.117 7.87937 70.3881V75.4194C7.87937 75.6776 7.88424 75.8708 7.90372 75.9877C7.92158 76.1078 7.94918 76.2036 7.99139 76.2767C8.03198 76.3465 8.09367 76.4 8.16998 76.4504C8.25116 76.4958 8.37942 76.5397 8.558 76.5884V76.8725H6.13083V76.5884C6.35487 76.5348 6.50424 76.4731 6.59029 76.4C6.67633 76.3319 6.73478 76.2279 6.76562 76.0932C6.79647 75.9601 6.81109 75.7328 6.81109 75.4194V73.1903C6.81109 72.6042 6.82245 72.0133 6.83706 71.4126C6.85492 70.8119 6.8744 70.4043 6.89876 70.1803H6.80134L4.49431 75.9487H3.83028L1.68884 70.0894H1.58819C1.60767 70.3264 1.62715 70.755 1.64339 71.3752C1.66287 71.9938 1.66936 72.6351 1.66936 73.2861V75.4178C1.66936 75.676 1.68073 75.8692 1.69534 75.986C1.7132 76.1062 1.74404 76.202 1.78301 76.275C1.82522 76.3448 1.88204 76.3984 1.9616 76.4487C2.04115 76.4942 2.17103 76.538 2.34962 76.5868V76.8709H0.226044V76.5868C0.46795 76.5251 0.630303 76.4552 0.711479 76.3789C0.794279 76.3043 0.842986 76.1971 0.870586 76.0607C0.896562 75.9195 0.906302 75.7052 0.906302 75.4178V70.3865C0.906302 70.1154 0.901432 69.9238 0.877079 69.8004C0.85922 69.6786 0.828374 69.5828 0.782915 69.5163C0.735832 69.4481 0.675761 69.3913 0.605949 69.3523C0.531267 69.3117 0.406256 69.2662 0.226044 69.2159V68.9302H2.30416L4.34656 74.5914L6.59191 68.9302H8.55963V69.2159L8.558 69.2175Z" fill="#00377B"/>
<path d="M13.4594 75.8823C13.2143 76.1421 12.987 76.3466 12.7759 76.4944C12.5681 76.6421 12.3408 76.7558 12.0941 76.8402C11.844 76.923 11.5697 76.9636 11.2758 76.9636C10.4738 76.9636 9.8682 76.7233 9.46231 76.2476C9.05806 75.7703 8.85187 75.0608 8.85187 74.1273C8.85187 73.5477 8.95577 73.0395 9.16521 72.5963C9.37465 72.1547 9.67013 71.8138 10.05 71.5751C10.4348 71.3316 10.8764 71.2114 11.3813 71.2114C11.771 71.2114 12.1038 71.2731 12.3782 71.3981C12.6558 71.5215 12.875 71.692 13.0373 71.9079C13.2046 72.1222 13.3328 72.395 13.4237 72.7229C13.5163 73.0493 13.5666 73.4779 13.578 74.0055H9.91203V74.1127C9.91203 74.5689 9.96399 74.952 10.0679 75.2654C10.1718 75.5771 10.3374 75.8206 10.5728 75.9976C10.8098 76.1729 11.1134 76.2606 11.4885 76.2606C11.8067 76.2606 12.0892 76.2022 12.349 76.0853C12.6022 75.9667 12.8555 75.7735 13.1055 75.5057L13.4611 75.8807L13.4594 75.8823ZM12.4821 73.5233C12.4594 73.1045 12.4058 72.7619 12.3262 72.4956C12.2434 72.231 12.1217 72.0281 11.9593 71.8852C11.7953 71.7423 11.5843 71.6725 11.3196 71.6725C10.9202 71.6725 10.5988 71.83 10.3634 72.1531C10.1247 72.4729 9.98347 72.9307 9.94126 73.5233H12.4821Z" fill="#00377B"/>
<path d="M15.6577 72.2781L15.7372 72.2943C15.9548 72.0362 16.1529 71.83 16.3331 71.6822C16.5182 71.5296 16.7146 71.4144 16.9257 71.3332C17.1351 71.252 17.3754 71.2114 17.6433 71.2114C17.8673 71.2114 18.0719 71.2228 18.2505 71.2488V72.5833H17.5978C17.5053 72.3722 17.4046 72.2245 17.2975 72.1303C17.1952 72.0362 17.0539 71.9891 16.8705 71.9891C16.7292 71.9891 16.5928 72.0281 16.4532 72.1076C16.3136 72.1888 16.1821 72.3089 16.0538 72.4615C15.9256 72.6174 15.8363 72.7635 15.7892 72.8999C15.7405 73.033 15.7194 73.1954 15.7194 73.3821V75.418C15.7194 75.7703 15.7372 76.0154 15.7811 76.1486C15.8233 76.2817 15.8931 76.3791 15.9938 76.4408C16.0928 76.5025 16.2422 76.5512 16.4402 76.5869V76.8711H14.0942V76.5869C14.2403 76.5382 14.3475 76.4993 14.4124 76.4652C14.4774 76.4295 14.5342 76.3807 14.5764 76.3174C14.6251 76.2574 14.6592 76.1616 14.682 76.0349C14.7079 75.9034 14.7193 75.707 14.7193 75.4358V72.8983C14.7193 72.6466 14.7144 72.4502 14.7063 72.2976C14.6982 72.1466 14.6738 72.0264 14.6235 71.9355C14.5748 71.843 14.505 71.7748 14.4108 71.7309C14.3183 71.6871 14.1819 71.6482 14.0066 71.6157V71.3121L15.3655 71.2536H15.7243L15.6577 72.2748V72.2781Z" fill="#00377B"/>
<path d="M22.5772 71.4449V72.6625H21.8401C21.7735 72.4076 21.6923 72.2063 21.5949 72.0651C21.4959 71.9189 21.3855 71.8183 21.2556 71.7599C21.1274 71.6998 20.9699 71.6722 20.7799 71.6722C20.5072 71.6722 20.2636 71.7599 20.0558 71.9319C19.8513 72.1073 19.6824 72.3735 19.559 72.7323C19.4405 73.0863 19.3756 73.5263 19.3756 74.0409C19.3756 74.3705 19.4015 74.6741 19.4454 74.9452C19.4925 75.218 19.5736 75.4518 19.684 75.6466C19.7977 75.8398 19.947 75.9908 20.1338 76.0979C20.3188 76.2083 20.551 76.2619 20.827 76.2619C21.103 76.2619 21.34 76.2083 21.5738 76.1028C21.8027 76.0005 22.0479 75.8171 22.293 75.5524L22.6242 75.9356C22.4278 76.1547 22.2525 76.3187 22.1015 76.4405C21.9472 76.5574 21.7881 76.6564 21.616 76.736C21.4423 76.8123 21.2702 76.8723 21.103 76.9113C20.9358 76.947 20.7491 76.9649 20.5526 76.9649C19.8204 76.9649 19.2603 76.723 18.8723 76.2375C18.4842 75.7505 18.291 75.0459 18.291 74.127C18.291 73.5555 18.3982 73.0424 18.6158 72.5992C18.8349 72.1544 19.1369 71.8134 19.5282 71.5731C19.9211 71.3296 20.3708 71.2095 20.8887 71.2095C21.202 71.2095 21.4975 71.229 21.7638 71.2663C22.0349 71.302 22.3077 71.3605 22.5788 71.4416" fill="#00377B"/>
<path d="M26.321 76.0429L26.2366 76.0185C25.8973 76.3627 25.5791 76.6046 25.282 76.7475C24.9881 76.8953 24.6732 76.9651 24.3371 76.9651C24.0481 76.9651 23.7818 76.9099 23.5578 76.793C23.3338 76.681 23.1617 76.5153 23.0415 76.3124C22.9181 76.103 22.8597 75.8627 22.8597 75.5932C22.8597 75.0282 23.1406 74.5915 23.7023 74.2814C24.2608 73.9745 25.1018 73.7943 26.2236 73.7456V73.3673C26.2236 72.9647 26.1847 72.6448 26.1051 72.4127C26.0288 72.1821 25.9054 72.0084 25.7414 71.898C25.5726 71.7909 25.3502 71.7373 25.0726 71.7373C24.769 71.7373 24.5238 71.8152 24.3403 71.9727C24.1553 72.1351 24.0173 72.3721 23.9231 72.6903H23.1633V71.9321C23.5351 71.7389 23.8419 71.5977 24.0919 71.5067C24.3387 71.4142 24.5887 71.3428 24.8388 71.2941C25.0872 71.2372 25.3356 71.2129 25.5937 71.2129C25.9785 71.2129 26.2853 71.2746 26.5191 71.398C26.7513 71.5197 26.925 71.7048 27.0435 71.9581C27.1604 72.2081 27.2172 72.5913 27.2172 73.1011V75.1224C27.2172 75.4113 27.2205 75.6127 27.2237 75.7328C27.227 75.8497 27.2367 75.9617 27.2562 76.064C27.2773 76.1614 27.3049 76.241 27.3455 76.301C27.3828 76.3611 27.4429 76.4131 27.5176 76.4569C27.5939 76.5007 27.714 76.5413 27.8861 76.59V76.8742H26.2902L26.3194 76.0445L26.321 76.0429ZM26.2253 74.2213C25.4362 74.2294 24.8436 74.3333 24.4556 74.5346C24.0643 74.7392 23.8679 75.0428 23.8679 75.4503C23.8679 75.6711 23.9101 75.8448 23.9962 75.9715C24.0887 76.0997 24.2007 76.189 24.3355 76.2377C24.4718 76.2864 24.6342 76.3075 24.8177 76.3075C25.0823 76.3075 25.3226 76.2458 25.5385 76.116C25.7544 75.9877 25.9233 75.827 26.0402 75.6305C26.1603 75.4325 26.2236 75.2344 26.2236 75.0428V74.2229L26.2253 74.2213Z" fill="#00377B"/>
<path d="M33.9094 76.8727H31.617V76.5886C31.7664 76.5399 31.8751 76.5009 31.9417 76.4668C32.0067 76.4311 32.0651 76.3824 32.1073 76.3191C32.1512 76.259 32.1885 76.1632 32.2112 76.0317C32.2388 75.9018 32.2518 75.707 32.2518 75.4375V73.9162C32.2518 73.6467 32.2437 73.4 32.2307 73.1792C32.2112 72.9584 32.1885 72.7749 32.1495 72.6385C32.1138 72.4957 32.0683 72.3836 32.0131 72.3057C31.9644 72.2262 31.9028 72.158 31.8297 72.1011C31.7583 72.0459 31.6706 71.9989 31.5845 71.9648C31.4904 71.9339 31.3654 71.9193 31.2176 71.9193C31.0699 71.9193 30.9221 71.9485 30.7841 72.007C30.6478 72.067 30.5 72.1693 30.3344 72.3187C30.1737 72.4664 30.0552 72.6109 29.9821 72.7538C29.9074 72.8999 29.8701 73.0639 29.8701 73.249V75.4213C29.8701 75.7541 29.8879 75.9862 29.9204 76.1145C29.9496 76.246 30.0097 76.3467 30.0958 76.4116C30.1834 76.4798 30.3263 76.5399 30.5211 76.5918V76.8759H28.2417V76.5918C28.3927 76.5431 28.4998 76.5042 28.5664 76.4701C28.6297 76.4343 28.6833 76.3856 28.7304 76.3223C28.771 76.2623 28.8083 76.1665 28.8327 76.0398C28.8586 75.9083 28.8684 75.7119 28.8684 75.4407V72.9032C28.8684 72.6515 28.8667 72.4551 28.8603 72.3025C28.8521 72.1515 28.8262 72.0313 28.7775 71.9404C28.7304 71.8479 28.6606 71.7797 28.5664 71.7358C28.4706 71.692 28.3359 71.653 28.1638 71.6206V71.3137L29.5243 71.2585H29.8766L29.8133 72.2083L29.8944 72.2326C30.1834 71.942 30.4172 71.7358 30.5909 71.6108C30.7679 71.4874 30.9465 71.39 31.1267 71.3218C31.3069 71.2569 31.4969 71.2212 31.6966 71.2212C31.9092 71.2212 32.0959 71.2472 32.2567 71.2959C32.4223 71.3413 32.57 71.4176 32.6967 71.5167C32.8217 71.619 32.9272 71.7423 33.0068 71.8917C33.0879 72.0443 33.1529 72.2229 33.1902 72.4323C33.2275 72.6385 33.2519 72.9048 33.2519 73.2295V75.4213C33.2519 75.6924 33.2584 75.8823 33.2746 76.0041C33.2909 76.121 33.3185 76.2152 33.3574 76.2817C33.3931 76.3483 33.4516 76.4019 33.5247 76.449C33.601 76.4944 33.7243 76.5399 33.9111 76.5902V76.8743L33.9094 76.8727Z" fill="#00377B"/>
<path d="M33.7698 71.6039C33.9646 71.5714 34.1205 71.5179 34.2406 71.4399C34.3607 71.3604 34.4549 71.2613 34.5231 71.1444C34.5897 71.0178 34.6449 70.8668 34.6822 70.6817C34.7212 70.4983 34.7618 70.2271 34.804 69.8765H35.6336V71.3149H37.5153V71.901H35.6336V74.4938C35.6336 74.8704 35.6466 75.1659 35.6774 75.39C35.7066 75.6124 35.7683 75.7861 35.8495 75.9144C35.9356 76.041 36.0378 76.1319 36.1434 76.1839C36.2505 76.2423 36.395 76.2667 36.5639 76.2667C36.7165 76.2667 36.8642 76.2326 36.999 76.1741C37.1354 76.1092 37.2685 76.0134 37.4016 75.8949L37.6614 76.2082C37.387 76.4777 37.1256 76.6709 36.8805 76.7911C36.6353 76.9129 36.3772 76.9713 36.1158 76.9713C35.6141 76.9713 35.2407 76.8236 34.9972 76.5281C34.752 76.231 34.6302 75.7683 34.6302 75.1367V71.9043H33.7698V71.6104V71.6039Z" fill="#00377B"/>
<path d="M37.8546 76.5883C38.0023 76.5396 38.1111 76.5006 38.1777 76.4665C38.241 76.4308 38.2962 76.3821 38.3417 76.3188C38.3823 76.2587 38.4196 76.1629 38.4456 76.0363C38.4699 75.9048 38.4862 75.7083 38.4862 75.4372V72.8996C38.4862 72.648 38.4813 72.4515 38.4732 72.2989C38.4651 72.1479 38.4358 72.0278 38.3904 71.9369C38.3433 71.8443 38.2751 71.7762 38.1809 71.7323C38.0835 71.6885 37.952 71.6495 37.7751 71.6171V71.3102L39.1339 71.255H39.4846V75.4177C39.4846 75.7506 39.5025 75.9827 39.5301 76.111C39.5626 76.2425 39.6243 76.3431 39.7103 76.4081C39.7963 76.4763 39.9392 76.5364 40.1357 76.5883V76.8724H37.8562V76.5883H37.8546ZM39.5187 70.1575H38.4472V69.0308H39.5187V70.1575Z" fill="#00377B"/>
<path d="M42.1813 75.4195C42.1813 75.7523 42.1976 75.9844 42.2284 76.1127C42.2576 76.2442 42.3177 76.3449 42.4054 76.4098C42.4914 76.478 42.6359 76.5381 42.834 76.59V76.8741H40.5221V76.59C40.7169 76.5397 40.8533 76.4861 40.9296 76.4325C41.001 76.379 41.0578 76.314 41.0887 76.2393C41.1212 76.1614 41.1439 76.0607 41.1618 75.9292C41.1731 75.7977 41.1764 75.6305 41.1764 75.4211V70.5489C41.1764 70.1787 41.1747 69.9173 41.1699 69.7728C41.1634 69.6267 41.1488 69.4984 41.1244 69.3945C41.0984 69.2906 41.0627 69.2127 41.0205 69.1542C40.9734 69.099 40.9134 69.0487 40.8403 69.0179C40.764 68.9789 40.626 68.9464 40.4279 68.9107V68.6071L41.8274 68.5503H42.1797V75.4211L42.1813 75.4195Z" fill="#00377B"/>
<path d="M47.7354 75.8823C47.487 76.1421 47.2613 76.3466 47.0535 76.4944C46.8473 76.6421 46.62 76.7558 46.3668 76.8402C46.1184 76.923 45.8456 76.9636 45.5485 76.9636C44.7497 76.9636 44.1474 76.7233 43.7366 76.2476C43.3308 75.7703 43.1246 75.0608 43.1246 74.1273C43.1246 73.5477 43.2317 73.0395 43.4379 72.5963C43.6474 72.1547 43.9412 71.8138 44.3244 71.5751C44.7108 71.3316 45.1524 71.2114 45.6524 71.2114C46.0437 71.2114 46.3765 71.2731 46.6525 71.3981C46.9285 71.5215 47.1477 71.692 47.3165 71.9079C47.4773 72.1222 47.6055 72.395 47.6964 72.7229C47.789 73.0493 47.8409 73.4779 47.8555 74.0055H44.1864V74.1127C44.1864 74.5689 44.2367 74.952 44.3406 75.2654C44.4429 75.5771 44.6134 75.8206 44.8455 75.9976C45.0809 76.1729 45.3862 76.2606 45.7644 76.2606C46.0843 76.2606 46.3668 76.2022 46.6233 76.0853C46.8766 75.9667 47.1331 75.7735 47.3799 75.5057L47.7354 75.8807V75.8823ZM46.7597 73.5233C46.7386 73.1045 46.6834 72.7619 46.6006 72.4956C46.521 72.231 46.3976 72.0281 46.2369 71.8852C46.0713 71.7423 45.8586 71.6725 45.5956 71.6725C45.1962 71.6725 44.878 71.83 44.6377 72.1531C44.4007 72.4729 44.2578 72.9307 44.2172 73.5233H46.7613H46.7597Z" fill="#00377B"/>
<path d="M52.3641 75.4196C52.3641 75.6777 52.3738 75.8709 52.3917 75.9878C52.4095 76.108 52.4404 76.2054 52.4793 76.2768C52.5216 76.3466 52.5768 76.4002 52.6612 76.4505C52.7407 76.496 52.8658 76.5398 53.046 76.5885V76.8726H50.5928V76.5885C50.8315 76.5268 50.9938 76.457 51.0734 76.3807C51.1546 76.306 51.2081 76.1989 51.2341 76.0625C51.2601 75.9213 51.2698 75.7069 51.2698 75.4196V70.3883C51.2698 70.1171 51.2633 69.9255 51.2438 69.8022C51.2244 69.6804 51.1919 69.5846 51.1448 69.518C51.101 69.4499 51.0409 69.393 50.9678 69.3541C50.8948 69.3135 50.7698 69.268 50.5912 69.2177V68.9287H53.0443V69.2177C52.8739 69.2583 52.7505 69.3021 52.6774 69.3459C52.6011 69.3898 52.541 69.4401 52.4923 69.5067C52.4485 69.5684 52.4177 69.669 52.3982 69.7924C52.3754 69.9239 52.3625 70.1171 52.3625 70.3883V75.4196H52.3641Z" fill="#00377B"/>
<path d="M59.4459 76.8727H57.1535V76.5886C57.3045 76.5399 57.4149 76.5009 57.4782 76.4668C57.5448 76.4311 57.6016 76.3824 57.6487 76.3191C57.6909 76.259 57.7266 76.1632 57.7526 76.0317C57.7753 75.9018 57.7867 75.707 57.7867 75.4375V73.9162C57.7867 73.6467 57.7802 73.4 57.7656 73.1792C57.7477 72.9584 57.7234 72.7749 57.6844 72.6385C57.6487 72.4957 57.6048 72.3836 57.5496 72.3057C57.5026 72.2262 57.436 72.158 57.3694 72.1011C57.2964 72.0459 57.2103 71.9989 57.1194 71.9648C57.0252 71.9339 56.9035 71.9193 56.7525 71.9193C56.6015 71.9193 56.457 71.9485 56.319 72.007C56.1891 72.067 56.0381 72.1693 55.8742 72.3187C55.7102 72.4664 55.5933 72.6109 55.517 72.7538C55.4439 72.8999 55.4082 73.0639 55.4082 73.249V75.4213C55.4082 75.7541 55.4228 75.9862 55.4537 76.1145C55.4861 76.246 55.5462 76.3467 55.629 76.4116C55.7167 76.4798 55.8579 76.5399 56.0592 76.5918V76.8759H53.7749V76.5918C53.9275 76.5431 54.0331 76.5042 54.098 76.4701C54.163 76.4343 54.2182 76.3856 54.2636 76.3223C54.3074 76.2623 54.3415 76.1665 54.3675 76.0398C54.3935 75.9083 54.4097 75.7119 54.4097 75.4407V72.9032C54.4097 72.6515 54.4032 72.4551 54.3935 72.3025C54.387 72.1515 54.361 72.0313 54.3107 71.9404C54.2669 71.8479 54.1954 71.7797 54.0996 71.7358C54.0038 71.692 53.8707 71.653 53.6986 71.6206V71.3137L55.0575 71.2585H55.4131L55.3498 72.2083L55.4326 72.2326C55.7215 71.942 55.9521 71.7358 56.129 71.6108C56.3044 71.4874 56.4814 71.39 56.6648 71.3218C56.8418 71.2569 57.0334 71.2212 57.2347 71.2212C57.436 71.2212 57.6308 71.2472 57.7948 71.2959C57.9604 71.3413 58.1081 71.4176 58.2331 71.5167C58.3598 71.619 58.4653 71.7423 58.5449 71.8917C58.6228 72.0443 58.6877 72.2229 58.7267 72.4323C58.7705 72.6385 58.7884 72.9048 58.7884 73.2295V75.4213C58.7884 75.6924 58.7949 75.8823 58.8127 76.0041C58.829 76.121 58.8598 76.2152 58.8955 76.2817C58.9313 76.3483 58.9897 76.4019 59.0644 76.449C59.1342 76.4944 59.2641 76.5399 59.4475 76.5902V76.8743L59.4459 76.8727Z" fill="#00377B"/>
<path d="M61.339 71.3122V71.5963C61.1555 71.6401 61.0289 71.6807 60.9607 71.7181C60.8828 71.757 60.8276 71.8073 60.7935 71.869C60.7561 71.9324 60.735 72.0168 60.735 72.1207C60.735 72.2246 60.7513 72.3366 60.774 72.4503C60.7967 72.5639 60.8406 72.6987 60.8958 72.848L61.9088 75.7931L63.094 72.9698C63.1752 72.7847 63.2239 72.6305 63.2596 72.5087C63.2905 72.3918 63.3051 72.2782 63.3051 72.1726C63.3051 72.0087 63.2596 71.8869 63.1768 71.8025C63.0875 71.7164 62.93 71.6515 62.6962 71.5979V71.3138H64.8718V71.5979C64.7175 71.6271 64.6023 71.6775 64.5227 71.7408C64.4415 71.8057 64.362 71.908 64.2776 72.0428C64.1964 72.1824 64.099 72.3756 63.9886 72.6224L62.0225 76.9328H61.3406L59.7609 72.5834C59.6505 72.2863 59.5661 72.0833 59.5028 71.9697C59.4362 71.8609 59.368 71.7797 59.2917 71.7213C59.217 71.6693 59.1066 71.6239 58.9637 71.5947V71.3105H61.3422L61.339 71.3122Z" fill="#00377B"/>
<path d="M69.2975 75.8823C69.0491 76.1421 68.8218 76.3466 68.6124 76.4944C68.4078 76.6421 68.1773 76.7558 67.9305 76.8402C67.6821 76.923 67.4094 76.9636 67.1074 76.9636C66.3102 76.9636 65.7047 76.7233 65.2972 76.2476C64.8929 75.7703 64.6867 75.0608 64.6867 74.1273C64.6867 73.5477 64.789 73.0395 64.9984 72.5963C65.2079 72.1547 65.5001 71.8138 65.8849 71.5751C66.2696 71.3316 66.7129 71.2114 67.2113 71.2114C67.6042 71.2114 67.9354 71.2731 68.2098 71.3981C68.489 71.5215 68.7082 71.692 68.8722 71.9079C69.0361 72.1222 69.166 72.395 69.2569 72.7229C69.3495 73.0493 69.3998 73.4779 69.4096 74.0055H65.7453V74.1127C65.7453 74.5689 65.7956 74.952 65.9027 75.2654C66.0018 75.5771 66.1755 75.8206 66.4077 75.9976C66.6431 76.1729 66.945 76.2606 67.3233 76.2606C67.6399 76.2606 67.9305 76.2022 68.1789 76.0853C68.4338 75.9667 68.6903 75.7735 68.942 75.5057L69.2975 75.8807V75.8823ZM68.3185 73.5233C68.2958 73.1045 68.2455 72.7619 68.1643 72.4956C68.0815 72.231 67.9597 72.0281 67.7941 71.8852C67.6334 71.7423 67.4207 71.6725 67.1561 71.6725C66.7551 71.6725 66.4385 71.83 66.2015 72.1531C65.9596 72.4729 65.8216 72.9307 65.781 73.5233H68.3202H68.3185Z" fill="#00377B"/>
<path d="M73.819 72.5833H73.2622C73.1778 72.3528 73.0787 72.1677 72.9635 72.0345C72.8449 71.9014 72.7134 71.8073 72.5689 71.7521C72.4196 71.6985 72.241 71.6709 72.025 71.6709C71.7166 71.6709 71.4666 71.7407 71.2847 71.8884C71.098 72.0346 71.0071 72.2326 71.0071 72.4859C71.0071 72.6661 71.0444 72.8138 71.1207 72.9307C71.1906 73.0444 71.3058 73.1532 71.4649 73.2554C71.6143 73.3545 71.8919 73.4876 72.2816 73.6565C72.6793 73.8269 72.9829 73.9828 73.2005 74.1273C73.4132 74.2685 73.5804 74.4374 73.7054 74.629C73.8288 74.8189 73.8889 75.0446 73.8889 75.306C73.8889 75.6112 73.8369 75.871 73.7298 76.0804C73.6259 76.2882 73.4814 76.4635 73.2914 76.595C73.0998 76.7266 72.8758 76.8207 72.6128 76.8792C72.3514 76.9376 72.0656 76.9652 71.7572 76.9652C71.4292 76.9652 71.1126 76.9409 70.809 76.8954C70.5022 76.8451 70.2034 76.785 69.9112 76.7038V75.4894H70.4827C70.5866 75.8434 70.7425 76.1031 70.9486 76.2639C71.1532 76.4262 71.439 76.5041 71.7978 76.5041C71.9374 76.5041 72.0738 76.4928 72.2069 76.4652C72.3449 76.4327 72.4634 76.3856 72.5641 76.3158C72.6728 76.2476 72.7556 76.1583 72.819 76.0414C72.879 75.9245 72.9099 75.7752 72.9099 75.6014C72.9099 75.4066 72.8709 75.2443 72.7946 75.1193C72.7167 74.9975 72.5965 74.8839 72.4326 74.7816C72.2702 74.6777 71.9828 74.5397 71.5721 74.3643C71.2182 74.2166 70.9373 74.0737 70.723 73.9341C70.5087 73.7928 70.3382 73.6289 70.2197 73.4389C70.0979 73.2473 70.0346 73.0233 70.0346 72.7668C70.0346 72.4469 70.1207 72.1693 70.2927 71.9371C70.4665 71.7017 70.7116 71.5215 71.0428 71.3981C71.3675 71.2731 71.749 71.2114 72.1874 71.2114C72.4423 71.2114 72.6923 71.2228 72.9277 71.2504C73.1664 71.2731 73.4684 71.3251 73.8239 71.3981V72.5833H73.819Z" fill="#00377B"/>
<path d="M74.1584 71.6039C74.3483 71.5714 74.5074 71.5179 74.6259 71.4399C74.7477 71.3604 74.8435 71.2613 74.9084 71.1444C74.9831 71.0178 75.0334 70.8668 75.0724 70.6817C75.1098 70.4983 75.1503 70.2271 75.1926 69.8765H76.0173V71.3149H77.899V71.901H76.0173V74.4938C76.0173 74.8704 76.0335 75.1659 76.066 75.39C76.0952 75.6124 76.1521 75.7861 76.2397 75.9144C76.3225 76.041 76.4199 76.1319 76.5287 76.1839C76.6407 76.2423 76.7739 76.2667 76.9508 76.2667C77.1035 76.2667 77.2512 76.2326 77.3827 76.1741C77.5191 76.1092 77.6571 76.0134 77.7886 75.8949L78.0467 76.2082C77.7756 76.4777 77.511 76.6709 77.2642 76.7911C77.019 76.9129 76.7625 76.9713 76.5011 76.9713C76.0011 76.9713 75.6277 76.8236 75.3858 76.5281C75.139 76.231 75.0172 75.7683 75.0172 75.1367V71.9043H74.1567V71.6104L74.1584 71.6039Z" fill="#00377B"/>
<path d="M80.0485 72.2065L80.1281 72.2309C80.3619 71.9987 80.5518 71.8217 80.7044 71.7032C80.8538 71.5863 80.9951 71.4905 81.1396 71.4191C81.2759 71.3477 81.4091 71.2973 81.5324 71.2649C81.651 71.2324 81.7776 71.2178 81.9059 71.2178C82.2971 71.2178 82.6088 71.3054 82.854 71.484C83.0975 71.661 83.2696 71.937 83.3605 72.3055C83.6512 72.0117 83.8849 71.7925 84.0684 71.6561C84.2486 71.5133 84.4337 71.4077 84.6204 71.3282C84.8087 71.2519 85.0117 71.2178 85.2276 71.2178C85.4874 71.2178 85.7082 71.2519 85.9014 71.3282C86.0848 71.4077 86.2439 71.523 86.3771 71.6821C86.5037 71.838 86.5979 72.036 86.6612 72.2714C86.7213 72.5069 86.7488 72.8251 86.7488 73.2277V75.4195C86.7488 75.7133 86.7618 75.9195 86.7781 76.0299C86.7992 76.1436 86.8268 76.2296 86.8641 76.2897C86.9031 76.3514 86.9534 76.4082 87.0313 76.452C87.106 76.4991 87.2294 76.5397 87.4031 76.5884V76.8725H85.114V76.5884C85.2666 76.5397 85.3737 76.5007 85.4387 76.4667C85.5052 76.4309 85.5621 76.3822 85.6059 76.3189C85.6497 76.2588 85.6838 76.1631 85.7114 76.0315C85.7358 75.9017 85.7471 75.7068 85.7471 75.4373V73.9161C85.7471 73.5865 85.739 73.317 85.7212 73.1011C85.7033 72.8851 85.6773 72.713 85.6384 72.5832C85.6043 72.4598 85.5604 72.3542 85.5036 72.2828C85.4549 72.2049 85.3932 72.1448 85.3283 72.0896C85.2666 72.036 85.1886 71.9922 85.0945 71.9597C85.0084 71.9305 84.8867 71.9159 84.7405 71.9159C84.5847 71.9159 84.4402 71.9467 84.3087 72.0052C84.1755 72.0685 84.0294 72.174 83.8719 72.3201C83.7128 72.4663 83.5992 72.6189 83.531 72.7682C83.4596 72.9144 83.4271 73.0929 83.4271 73.2926V75.4162C83.4271 75.7101 83.4368 75.9163 83.458 76.0267C83.4758 76.1403 83.505 76.2264 83.544 76.2864C83.5781 76.3481 83.6333 76.4049 83.708 76.4488C83.7778 76.4959 83.9044 76.5365 84.0781 76.5852V76.8693H81.7922V76.5852C81.9432 76.5365 82.052 76.4975 82.1185 76.4634C82.1851 76.4277 82.2387 76.379 82.2841 76.3157C82.328 76.2556 82.3621 76.1598 82.3848 76.0283C82.4156 75.8984 82.4254 75.7036 82.4254 75.4341V73.9128C82.4254 73.5703 82.4173 73.2878 82.3945 73.0702C82.3783 72.8527 82.3475 72.679 82.3036 72.5491C82.2647 72.4143 82.2127 72.3072 82.1494 72.226C82.0877 72.1448 82.0228 72.0831 81.9529 72.0409C81.8896 71.9971 81.8117 71.9662 81.7224 71.9451C81.6331 71.9224 81.5308 71.9143 81.4188 71.9143C81.2613 71.9143 81.1103 71.9467 80.9723 72.0214C80.8311 72.0929 80.6898 72.1968 80.5405 72.3315C80.3976 72.4663 80.2888 72.6075 80.2125 72.7553C80.1427 72.9014 80.107 73.0621 80.107 73.2326V75.4146C80.107 75.6354 80.1102 75.8042 80.1232 75.9211C80.1313 76.038 80.1524 76.1273 80.1768 76.1923C80.2028 76.2572 80.2336 76.3108 80.2742 76.353C80.3115 76.392 80.3684 76.4309 80.4414 76.4683C80.5129 76.5072 80.6184 76.543 80.7613 76.5819V76.866H78.4818V76.5819C78.628 76.5332 78.7335 76.4942 78.8 76.4602C78.8634 76.4244 78.9169 76.3757 78.9656 76.3124C79.0111 76.2523 79.0484 76.1566 79.0712 76.0299C79.0923 75.8984 79.1069 75.702 79.1069 75.4308V72.8933C79.1069 72.6416 79.0988 72.4452 79.0923 72.2926C79.0858 72.1416 79.0582 72.0214 79.0127 71.9305C78.9673 71.838 78.8942 71.7698 78.8017 71.7259C78.7043 71.6821 78.5727 71.6431 78.3958 71.6107V71.3038L79.7612 71.2486H80.1135L80.0485 72.1984V72.2065Z" fill="#00377B"/>
<path d="M92.0269 75.8823C91.7802 76.1421 91.5545 76.3466 91.3434 76.4944C91.1356 76.6421 90.9083 76.7558 90.6632 76.8402C90.4131 76.923 90.1388 76.9636 89.8433 76.9636C89.0429 76.9636 88.4422 76.7233 88.0298 76.2476C87.6223 75.7703 87.4226 75.0608 87.4226 74.1273C87.4226 73.5477 87.5249 73.0395 87.7327 72.5963C87.9405 72.1547 88.2376 71.8138 88.6191 71.5751C89.0007 71.3316 89.4455 71.2114 89.9472 71.2114C90.3401 71.2114 90.6713 71.2731 90.9473 71.3981C91.2217 71.5215 91.4441 71.692 91.6064 71.9079C91.772 72.1222 91.9019 72.395 91.9912 72.7229C92.0838 73.0493 92.1357 73.4779 92.1455 74.0055H88.4779V74.1127C88.4779 74.5689 88.5315 74.952 88.6338 75.2654C88.7393 75.5771 88.9049 75.8206 89.1403 75.9976C89.3773 76.1729 89.6809 76.2606 90.0576 76.2606C90.3726 76.2606 90.6615 76.2022 90.9164 76.0853C91.1713 75.9667 91.4262 75.7735 91.6746 75.5057L92.0286 75.8807L92.0269 75.8823ZM91.0512 73.5233C91.0268 73.1045 90.9733 72.7619 90.8953 72.4956C90.8125 72.231 90.6908 72.0281 90.5284 71.8852C90.3677 71.7423 90.1566 71.6725 89.8855 71.6725C89.4861 71.6725 89.1663 71.83 88.9341 72.1531C88.6938 72.4729 88.5526 72.9307 88.5087 73.5233H91.0512Z" fill="#00377B"/>
<path d="M98.086 76.8727H95.7935V76.5886C95.9462 76.5399 96.0468 76.5009 96.1166 76.4668C96.1848 76.4311 96.2384 76.3824 96.2822 76.3191C96.3277 76.259 96.3634 76.1632 96.3878 76.0317C96.4137 75.9018 96.4235 75.707 96.4235 75.4375V73.9162C96.4235 73.6467 96.4202 73.4 96.404 73.1792C96.3878 72.9584 96.3634 72.7749 96.3244 72.6385C96.2855 72.4957 96.2416 72.3836 96.1881 72.3057C96.1394 72.2262 96.0744 72.158 96.0046 72.1011C95.9299 72.0459 95.8487 71.9989 95.7546 71.9648C95.6653 71.9339 95.5403 71.9193 95.3909 71.9193C95.2415 71.9193 95.0954 71.9485 94.9591 72.007C94.8259 72.067 94.6749 72.1693 94.5126 72.3187C94.3502 72.4664 94.2301 72.6109 94.1587 72.7538C94.0823 72.8999 94.045 73.0639 94.045 73.249V75.4213C94.045 75.7541 94.0596 75.9862 94.0888 76.1145C94.1229 76.246 94.183 76.3467 94.269 76.4116C94.3567 76.4798 94.498 76.5399 94.6944 76.5918V76.8759H92.4166V76.5918C92.5643 76.5431 92.6715 76.5042 92.7413 76.4701C92.8014 76.4343 92.8582 76.3856 92.9037 76.3223C92.9475 76.2623 92.9816 76.1665 93.0092 76.0398C93.0319 75.9083 93.0465 75.7119 93.0465 75.4407V72.9032C93.0465 72.6515 93.0417 72.4551 93.0319 72.3025C93.0254 72.1515 92.9994 72.0313 92.9507 71.9404C92.9053 71.8479 92.8355 71.7797 92.7429 71.7358C92.6423 71.692 92.5075 71.653 92.3354 71.6206V71.3137L93.6959 71.2585H94.0499L93.9866 72.2083L94.0661 72.2326C94.3551 71.942 94.5905 71.7358 94.7642 71.6108C94.9412 71.4874 95.1214 71.39 95.2984 71.3218C95.4818 71.2569 95.6734 71.2212 95.8731 71.2212C96.0842 71.2212 96.2709 71.2472 96.4348 71.2959C96.5988 71.3413 96.7466 71.4176 96.8716 71.5167C96.9982 71.619 97.1005 71.7423 97.1817 71.8917C97.2612 72.0443 97.3229 72.2229 97.3651 72.4323C97.4041 72.6385 97.4252 72.9048 97.4252 73.2295V75.4213C97.4252 75.6924 97.4317 75.8823 97.4495 76.0041C97.4625 76.121 97.4918 76.2152 97.5307 76.2817C97.5697 76.3483 97.6249 76.4019 97.6996 76.449C97.7743 76.4944 97.8993 76.5399 98.0843 76.5902V76.8743L98.086 76.8727Z" fill="#00377B"/>
<path d="M97.7077 71.6039C97.8992 71.5714 98.0616 71.5179 98.1801 71.4399C98.297 71.3604 98.3944 71.2613 98.4626 71.1444C98.5276 71.0178 98.5844 70.8668 98.6217 70.6817C98.6591 70.4983 98.7013 70.2271 98.7451 69.8765H99.5699V71.3149H101.45V71.901H99.5699V74.4938C99.5699 74.8704 99.5861 75.1659 99.6169 75.39C99.6478 75.6124 99.7062 75.7861 99.789 75.9144C99.8783 76.041 99.9725 76.1319 100.083 76.1839C100.193 76.2423 100.328 76.2667 100.503 76.2667C100.659 76.2667 100.804 76.2326 100.937 76.1741C101.072 76.1092 101.208 76.0134 101.338 75.8949L101.603 76.2082C101.323 76.4777 101.064 76.6709 100.817 76.7911C100.57 76.9129 100.317 76.9713 100.049 76.9713C99.5488 76.9713 99.1802 76.8236 98.9351 76.5281C98.6899 76.231 98.5681 75.7683 98.5681 75.1367V71.9043H97.7077V71.6104V71.6039Z" fill="#00377B"/>
<path d="M105.689 72.5833H105.13C105.048 72.3528 104.945 72.1677 104.828 72.0345C104.715 71.9014 104.582 71.8073 104.432 71.7521C104.286 71.6985 104.108 71.6709 103.893 71.6709C103.58 71.6709 103.333 71.7407 103.153 71.8884C102.963 72.0346 102.874 72.2326 102.874 72.4859C102.874 72.6661 102.909 72.8138 102.984 72.9307C103.057 73.0444 103.174 73.1532 103.327 73.2554C103.483 73.3545 103.755 73.4876 104.145 73.6565C104.543 73.8269 104.845 73.9828 105.064 74.1273C105.28 74.2685 105.449 74.4374 105.567 74.629C105.692 74.8189 105.754 75.0446 105.754 75.306C105.754 75.6112 105.7 75.871 105.596 76.0804C105.489 76.2882 105.345 76.4635 105.153 76.595C104.966 76.7266 104.736 76.8207 104.476 76.8792C104.212 76.9376 103.931 76.9652 103.617 76.9652C103.304 76.9652 102.976 76.9409 102.666 76.8954C102.362 76.8451 102.065 76.785 101.773 76.7038V75.4894H102.341C102.448 75.8434 102.603 76.1031 102.809 76.2639C103.015 76.4262 103.296 76.5041 103.656 76.5041C103.798 76.5041 103.932 76.4928 104.065 76.4652C104.199 76.4327 104.319 76.3856 104.424 76.3158C104.528 76.2476 104.609 76.1583 104.674 76.0414C104.734 75.9245 104.768 75.7752 104.768 75.6014C104.768 75.4066 104.731 75.2443 104.652 75.1193C104.572 74.9975 104.453 74.8839 104.291 74.7816C104.127 74.6777 103.841 74.5397 103.429 74.3643C103.075 74.2166 102.791 74.0737 102.582 73.9341C102.367 73.7928 102.198 73.6289 102.075 73.4389C101.955 73.2473 101.893 73.0233 101.893 72.7668C101.893 72.4469 101.979 72.1693 102.156 71.9371C102.327 71.7017 102.573 71.5215 102.9 71.3981C103.226 71.2731 103.609 71.2114 104.048 71.2114C104.299 71.2114 104.548 71.2228 104.79 71.2504C105.028 71.2731 105.327 71.3251 105.686 71.3981V72.5833H105.689Z" fill="#00377B"/>
<path d="M61.1138 10.4706C61.1171 11.7918 60.8627 13.1129 60.3703 14.3438C59.8796 15.5747 59.1477 16.712 58.2286 17.6787C56.3987 19.6251 53.7646 20.8396 51.0205 20.9315C49.6518 20.9807 48.2617 20.7625 46.9603 20.2717C45.6621 19.7778 44.4509 19.0261 43.4334 18.0562C42.4175 17.0879 41.5936 15.9062 41.0372 14.6048C40.7599 13.9532 40.5449 13.2754 40.4038 12.5812C40.2643 11.887 40.192 11.178 40.1888 10.4706C40.192 9.05428 40.476 7.63466 41.0356 6.33485C41.592 5.03339 42.4142 3.85174 43.4317 2.8818C44.4476 1.91023 45.6604 1.16021 46.9586 0.666211C48.2601 0.173857 49.6518 -0.0411353 51.0205 0.00645893C53.7646 0.098365 56.4003 1.31612 58.2302 3.26256C59.1493 4.23086 59.8796 5.36819 60.372 6.59908C60.8643 7.82832 61.1187 9.15111 61.1154 10.4723L61.1138 10.4706ZM61.1138 10.4706C61.1105 9.14947 60.8446 7.82832 60.3228 6.61713C59.8025 5.40594 59.0344 4.30635 58.0858 3.40534C57.1372 2.50269 56.0064 1.80683 54.7985 1.35058C53.5873 0.897618 52.2941 0.699035 51.0205 0.74827C48.4685 0.841818 46.0314 1.97587 44.336 3.7861C43.4842 4.68546 42.8081 5.74074 42.3535 6.88136C41.8989 8.02198 41.6642 9.24466 41.6658 10.4706C41.6642 11.6966 41.8972 12.9209 42.3518 14.0615C42.8048 15.2021 43.481 16.2591 44.3327 17.1584C46.0281 18.9687 48.4669 20.1027 51.0205 20.1963C52.2941 20.2438 53.5873 20.0469 54.7985 19.5923C56.0064 19.1344 57.1372 18.4385 58.0858 17.5359C59.0344 16.6349 59.8025 15.5337 60.3228 14.3225C60.8446 13.1113 61.1105 11.7901 61.1138 10.469V10.4706Z" fill="url(#paint0_linear_719_574)"/>
<path d="M66.1932 45.5623V12.0034H97.095V18.2022H72.392V25.6597H92.247V31.906H72.392V45.5623H66.1932Z" fill="url(#paint1_linear_719_574)"/>
<path d="M99.6126 15.8261V9.67334H105.718V15.8261H99.6126ZM99.6126 45.5627V18.5291H105.718V45.5627H99.6126Z" fill="url(#paint2_linear_719_574)"/>
<path d="M28.6103 21.8524L17.9836 36.0207H16.7724L6.37883 21.8048V45.528H0.226044V12.9014H7.31102L17.5192 26.9302L27.7273 12.9014H34.7647V45.528H28.6119V21.8507L28.6103 21.8524Z" fill="url(#paint3_linear_719_574)"/>
<path d="M63.2884 22.5055L49.2596 55.0846H43.0133L47.3017 45.1095L38.1193 22.5039H44.7381L48.2339 32.4314L50.4248 38.9091L52.8013 32.5709L56.9961 22.5039H63.2884V22.5055Z" fill="url(#paint4_linear_719_574)"/>
<path d="M53.0031 9.11646C53.0031 12.1871 48.3487 12.1871 48.3487 9.11646C48.3487 6.04581 53.0031 6.04581 53.0031 9.11646ZM48.7048 13.5444V29.5442H52.6486V13.5444H48.7048Z" fill="url(#paint5_linear_719_574)"/>
<path d="M49.5822 58.5903C49.8451 58.5903 50.091 58.6073 50.3199 58.6412C50.5536 58.6703 50.7557 58.7333 50.9261 58.8302C51.1014 58.9222 51.2377 59.0579 51.3351 59.2372C51.4374 59.4164 51.4885 59.6514 51.4885 59.9422C51.4885 60.102 51.4593 60.245 51.4009 60.371C51.3473 60.4969 51.2718 60.6084 51.1744 60.7053C51.0819 60.7973 50.9724 60.8773 50.8458 60.9451C50.7192 61.0081 50.5853 61.0566 50.4441 61.0905C50.8823 61.1341 51.2256 61.2625 51.4739 61.4757C51.7222 61.6889 51.8464 61.9917 51.8464 62.3841C51.8464 62.6894 51.8001 62.9438 51.7076 63.1473C51.6151 63.3508 51.4812 63.5155 51.3059 63.6415C51.1306 63.7675 50.9139 63.8571 50.6559 63.9104C50.3978 63.9637 50.1008 63.9903 49.7648 63.9903H46.5073V63.5688C46.9406 63.5688 47.1573 63.4574 47.1573 63.2345V59.3753C47.1573 59.1524 46.9406 59.0409 46.5073 59.0409V58.5903H49.5822ZM48.2748 61.403V63.3871H49.6479C49.8378 63.3871 49.9961 63.3629 50.1227 63.3144C50.2542 63.2611 50.3588 63.1885 50.4368 63.0964C50.5195 63.0043 50.578 62.8953 50.612 62.7693C50.6461 62.6385 50.6632 62.4932 50.6632 62.3333C50.6632 61.9989 50.578 61.7615 50.4075 61.621C50.2371 61.4757 49.9839 61.403 49.6479 61.403H48.2748ZM48.2748 59.2226V60.916H49.458C49.7502 60.916 49.9693 60.8458 50.1154 60.7053C50.2615 60.5648 50.3345 60.3419 50.3345 60.0366C50.3345 59.7605 50.259 59.557 50.1081 59.4261C49.9571 59.2905 49.7404 59.2226 49.458 59.2226H48.2748Z" fill="#00377B"/>
<path d="M57.0108 60.7053C56.8355 60.7053 56.7065 60.7271 56.6237 60.7707C56.5409 60.8094 56.4825 60.87 56.4484 60.9524L55.1191 64.1357C55.0169 64.3828 54.9219 64.5984 54.8343 64.7825C54.7515 64.9715 54.6565 65.129 54.5494 65.2549C54.4472 65.3858 54.3254 65.4827 54.1842 65.5457C54.043 65.6135 53.8653 65.6474 53.651 65.6474C53.3151 65.6474 53.0424 65.5626 52.833 65.393C52.6236 65.2283 52.5189 65.0054 52.5189 64.7244C52.5189 64.6759 52.5287 64.6202 52.5481 64.5572C52.5676 64.4942 52.5993 64.4361 52.6431 64.3828C52.6869 64.3295 52.7405 64.2835 52.8038 64.2447C52.8671 64.2108 52.9426 64.1938 53.0302 64.1938C53.2006 64.1938 53.3272 64.235 53.41 64.3174C53.4928 64.3998 53.5342 64.4967 53.5342 64.6081C53.5342 64.7341 53.4952 64.831 53.4173 64.8988C53.3443 64.9715 53.2444 65.0151 53.1178 65.0296C53.1617 65.1023 53.2225 65.1605 53.3004 65.2041C53.3832 65.2525 53.5171 65.2767 53.7022 65.2767C53.8774 65.2767 54.0211 65.2065 54.1331 65.066C54.2451 64.9255 54.3692 64.7074 54.5056 64.4119L53.0448 60.9596C52.962 60.7901 52.7867 60.7053 52.5189 60.7053V60.291H54.6078V60.7053H54.2499C54.1087 60.7053 54.0381 60.7513 54.0381 60.8434C54.0381 60.8821 54.0454 60.9185 54.06 60.9524L55.0096 63.329L55.9737 61.0178C55.9883 60.9742 55.9956 60.9354 55.9956 60.9015C55.9956 60.7707 55.8909 60.7053 55.6815 60.7053H55.4624V60.291H57.0108V60.7053Z" fill="#00377B"/>
<defs>
<linearGradient id="paint0_linear_719_574" x1="40.1888" y1="10.469" x2="61.8523" y2="10.469" gradientUnits="userSpaceOnUse">
<stop stop-color="#007BC2"/>
<stop offset="1" stop-color="#00377C"/>
</linearGradient>
<linearGradient id="paint1_linear_719_574" x1="66.1932" y1="28.7828" x2="97.095" y2="28.7828" gradientUnits="userSpaceOnUse">
<stop stop-color="#1A1A1A"/>
<stop offset="1" stop-color="#4D4D4D"/>
</linearGradient>
<linearGradient id="paint2_linear_719_574" x1="99.6126" y1="27.618" x2="105.718" y2="27.618" gradientUnits="userSpaceOnUse">
<stop stop-color="#1A1A1A"/>
<stop offset="1" stop-color="#4D4D4D"/>
</linearGradient>
<linearGradient id="paint3_linear_719_574" x1="0.226044" y1="29.218" x2="34.763" y2="29.218" gradientUnits="userSpaceOnUse">
<stop stop-color="#007BC2"/>
<stop offset="1" stop-color="#00377C"/>
</linearGradient>
<linearGradient id="paint4_linear_719_574" x1="38.1193" y1="38.7959" x2="63.2884" y2="38.7959" gradientUnits="userSpaceOnUse">
<stop stop-color="#007BC2"/>
<stop offset="1" stop-color="#00377C"/>
</linearGradient>
<linearGradient id="paint5_linear_719_574" x1="48.3471" y1="18.1791" x2="53.0031" y2="18.1791" gradientUnits="userSpaceOnUse">
<stop stop-color="#1A1A1A"/>
<stop offset="1" stop-color="#4D4D4D"/>
</linearGradient>
</defs>
</svg>
