<svg width="42" height="42" viewBox="0 0 42 42" fill="none" xmlns="http://www.w3.org/2000/svg">
<path d="M20.8052 29.7958C19.1167 29.7958 17.4662 29.28 16.0623 28.3135C14.6583 27.347 13.5641 25.9732 12.9179 24.366C12.2718 22.7588 12.1027 20.9902 12.4321 19.284C12.7615 17.5778 13.5746 16.0105 14.7685 14.7803C15.9625 13.5502 17.4837 12.7125 19.1397 12.3731C20.7958 12.0337 22.5123 12.2079 24.0723 12.8736C25.6322 13.5394 26.9655 14.6667 27.9036 16.1132C28.8417 17.5597 29.3424 19.2603 29.3424 21C29.3424 23.3328 28.4429 25.57 26.8419 27.2196C25.2409 28.8691 23.0694 29.7958 20.8052 29.7958ZM20.8052 15.136C19.6796 15.136 18.5792 15.48 17.6432 16.1243C16.7073 16.7686 15.9778 17.6844 15.547 18.7559C15.1162 19.8274 15.0036 21.0065 15.2232 22.1439C15.4428 23.2814 15.9848 24.3263 16.7808 25.1464C17.5767 25.9664 18.5908 26.5249 19.6949 26.7512C20.7989 26.9774 21.9433 26.8613 22.9832 26.4175C24.0232 25.9737 24.9121 25.2221 25.5375 24.2578C26.1628 23.2935 26.4966 22.1597 26.4966 21C26.4966 19.4447 25.897 17.9532 24.8297 16.8535C23.7623 15.7538 22.3147 15.136 20.8052 15.136Z" fill="white"/>
<path d="M28.3076 22.5517H20.9777L19.5117 21.0882V13.7559H22.4437V19.6246H28.3076V22.5517Z" fill="white"/>
<path d="M16.8152 26.6914C16.5304 26.6902 16.2523 26.6061 16.0156 26.4494C15.7789 26.2928 15.5941 26.0706 15.4843 25.8106C15.3746 25.5507 15.3447 25.2645 15.3985 24.9878C15.4522 24.7112 15.5872 24.4564 15.7866 24.2552L20.0605 19.956C20.1893 19.8052 20.3483 19.6823 20.5274 19.5951C20.7065 19.5079 20.9019 19.4582 21.1013 19.4492C21.3007 19.4403 21.4999 19.4721 21.6863 19.5429C21.8727 19.6136 22.0423 19.7217 22.1844 19.8603C22.3266 19.999 22.4382 20.1651 22.5124 20.3485C22.5865 20.5318 22.6216 20.7284 22.6154 20.9257C22.6091 21.1231 22.5617 21.3171 22.476 21.4954C22.3904 21.6738 22.2685 21.8328 22.1178 21.9623L17.8438 26.2615C17.7097 26.3969 17.5497 26.5046 17.3731 26.5784C17.1965 26.6522 17.0069 26.6906 16.8152 26.6914Z" fill="white"/>
<path d="M12.929 4.75095L20.7597 2.96847L22.5384 6.48762C22.9371 6.54721 23.3359 6.60681 23.727 6.69819L26.5877 3.97221L33.4155 8.32671L32.2094 12.0743C32.4649 12.3966 32.7002 12.7347 32.9139 13.0866L36.8013 13.179L38.6104 21.1265L35.146 22.8923C35.1056 23.3021 35.0398 23.7088 34.9491 24.1099L37.6443 26.9694L33.388 33.8469L29.6997 32.6117C29.3769 32.8674 29.0402 33.1047 28.6912 33.3224L28.625 37.2615L20.7944 39.044L19.0296 35.5216C18.625 35.4781 18.2233 35.4088 17.827 35.3143L15.0226 38.0274L8.20893 33.6697L9.4009 29.9254C9.15055 29.6065 8.9251 29.2669 8.69641 28.913L4.80904 28.8206L2.99996 20.8731L6.46435 19.1073C6.51734 18.6893 6.57359 18.2856 6.66125 17.8898L3.96606 15.0302L8.22229 8.1527L11.9247 9.38474C12.2377 9.13306 12.5714 8.90675 12.9191 8.67725L12.929 4.75095ZM19.2133 6.32741L15.7769 7.10965L15.7256 10.3989L15.0031 10.8039C14.3376 11.1893 13.7107 11.6392 13.1312 12.1471L12.5149 12.6934L9.42253 11.6683L7.55974 14.6783L9.80735 17.0684L9.58979 17.8696C9.3902 18.6206 9.26265 19.3897 9.20895 20.1664L9.16255 21.0039L6.26798 22.4746L7.06189 25.9624L10.3079 26.0354L10.7122 26.7703C11.0947 27.4486 11.5427 28.087 12.0496 28.676L12.5958 29.3184L11.6009 32.4315L14.583 34.3387L16.927 32.0762L17.719 32.3018C18.4598 32.5155 19.2203 32.6498 19.9878 32.7025L20.8145 32.7549L22.2843 35.6979L25.7208 34.9156L25.7861 31.6232L26.4946 31.2214C27.1665 30.8379 27.7983 30.3868 28.3805 29.8749L28.9969 29.3287L32.0751 30.357L33.952 27.3438L31.6936 24.9712L31.9079 24.1557C32.1075 23.4047 32.235 22.6356 32.2887 21.8589L32.3351 21.0214L35.2297 19.5506L34.4358 16.0629L31.1898 15.9898L30.7855 15.255C30.4065 14.5744 29.9582 13.9357 29.448 13.3493L28.9051 12.7212L29.9109 9.59053L26.9147 7.68656L24.5848 9.9459L23.7928 9.72027C23.045 9.51696 22.2808 9.38389 21.5098 9.32279L20.6972 9.2672L19.2133 6.32741Z" fill="white"/>
</svg>
